<svg xmlns="http://www.w3.org/2000/svg" viewBox="0 0 31.87 41.01"><defs><style>.cls-1{fill:#91f0ff;}.cls-2{fill:#0ba5f4;}.cls-3{fill:#29bbf1;}.cls-4{fill:#68f3fb;}.cls-5{fill:#84cde0;}.cls-6{fill:#6bb6ef;}.cls-7{fill:#2145a2;}.cls-8{fill:#4170ce;}.cls-9{fill:#5380c9;}.cls-10{fill:#4165a3;}.cls-11{fill:#175ab2;}.cls-12{fill:#0951b2;}.cls-13{fill:#6191d6;}.cls-14{fill:#6076df;}.cls-15{fill:#85e8fb;}.cls-16{fill:#7ce1f2;}.cls-17{fill:#4bd4f7;}.cls-18{fill:#70e1fd;}.cls-19{fill:#69cafb;}.cls-20{fill:#54a9ef;}.cls-21{fill:#42a3e6;}.cls-22{fill:#1f73ca;}.cls-23{fill:#0da4f4;}.cls-24{fill:#0b8eed;}.cls-25{fill:#0b68d4;}.cls-26{fill:#0863b4;}.cls-27{fill:#042d9f;}.cls-28{fill:#032f87;}.cls-29{fill:#02237d;}.cls-30{fill:#03408d;}.cls-31{fill:#022e90;}.cls-32{fill:#0876dd;}.cls-33{fill:#0539b3;}.cls-34{fill:#fff;}.cls-35{fill:#31b2a0;}.cls-36{fill:#299485;}.cls-37{fill:#0fc2a9;}.cls-38{fill:#38ccb7;}.cls-39{fill:#35bfac;}</style></defs><title>hail</title><g id="레이어_2" data-name="레이어 2"><g id="Layer_1" data-name="Layer 1"><polygon class="cls-1" points="5.5 6.34 6.31 4.72 8.02 3.88 16.01 9.23 5.5 6.34"/><polygon class="cls-2" points="5.5 6.34 11.44 14.31 16.01 9.23 5.5 6.34"/><polygon class="cls-3" points="5.5 6.34 11.44 14.31 1.19 13.03 5.5 6.34"/><polygon class="cls-4" points="5.5 6.34 1.67 8.92 1.19 13.03 5.5 6.34"/><polygon class="cls-5" points="0 11.77 1.67 8.92 1.19 13.03 0 11.77"/><polygon class="cls-6" points="0 11.77 0 15.19 1.19 13.03 0 11.77"/><polygon class="cls-7" points="1.55 16.7 11.44 14.31 1.19 13.03 1.55 16.7"/><polygon class="cls-8" points="1.55 16.7 11.44 14.31 1.19 13.03 1.55 16.7"/><polygon class="cls-9" points="1.55 16.7 11.44 14.31 2.87 19.07 1.55 16.7"/><polygon class="cls-10" points="5.86 19.85 11.44 14.31 2.87 19.07 5.86 19.85"/><polygon class="cls-11" points="5.86 19.85 11.44 14.31 11.44 19.85 5.86 19.85"/><polygon class="cls-12" points="16.26 19.85 11.44 14.31 11.44 19.85 16.26 19.85"/><polygon class="cls-13" points="1.55 16.7 0 15.19 1.19 13.03 1.55 16.7"/><polygon class="cls-14" points="1.55 16.7 0 15.19 2.87 19.07 1.55 16.7"/><polygon class="cls-15" points="11.72 3.88 8.02 3.88 16.01 9.23 11.72 3.88"/><polygon class="cls-16" points="11.72 3.88 14.47 1.38 16.01 9.23 11.72 3.88"/><polygon class="cls-17" points="21.69 6.1 14.47 1.38 16.01 9.23 21.69 6.1"/><polygon class="cls-18" points="21.69 6.1 14.47 1.38 18.41 0 21.69 6.1"/><polygon class="cls-19" points="21.69 6.1 21.69 0.54 18.41 0 21.69 6.1"/><polygon class="cls-20" points="21.69 6.1 21.69 0.54 24.45 2.27 21.69 6.1"/><polygon class="cls-21" points="21.69 6.1 26.49 4.84 24.45 2.27 21.69 6.1"/><polygon class="cls-22" points="21.69 6.1 26.49 4.84 27.38 7.05 21.69 6.1"/><polygon class="cls-23" points="21.69 6.1 21.69 11.75 16.01 9.23 21.69 6.1"/><polygon class="cls-24" points="21.69 6.1 21.69 11.75 27.38 7.05 21.69 6.1"/><polygon class="cls-25" points="29.83 8.37 21.69 11.75 27.38 7.05 29.83 8.37"/><polygon class="cls-26" points="29.83 8.37 21.69 11.75 31.63 11.12 29.83 8.37"/><polygon class="cls-27" points="31.87 14.31 21.69 11.75 31.63 11.12 31.87 14.31"/><polygon class="cls-28" points="31.87 14.31 21.69 11.75 30.97 16.98 31.87 14.31"/><polygon class="cls-29" points="28.58 19.07 21.69 11.75 30.97 16.98 28.58 19.07"/><polygon class="cls-28" points="28.58 19.07 21.69 11.75 25.17 19.85 28.58 19.07"/><polygon class="cls-30" points="20.93 19.85 21.69 11.75 25.17 19.85 20.93 19.85"/><polygon class="cls-31" points="20.93 19.85 21.69 11.75 16.26 19.85 20.93 19.85"/><polygon class="cls-32" points="11.44 14.31 21.69 11.75 16.01 9.23 11.44 14.31"/><polygon class="cls-33" points="11.44 14.31 21.69 11.75 16.26 19.85 11.44 14.31"/><path class="cls-34" d="M14.22,36.34V41h-.46V38.79H11V41h-.44V36.34H11v2h2.73v-2Z"/><path class="cls-34" d="M15,40c0-.63.58-1,1.42-1a2.91,2.91,0,0,1,1,.18v-.31a.89.89,0,0,0-1-1,1.91,1.91,0,0,0-1.09.4L15.22,38a2.3,2.3,0,0,1,1.29-.44,1.25,1.25,0,0,1,1.35,1.34v1.53c0,.12,0,.18.15.18V41h-.17a.34.34,0,0,1-.36-.31v-.27a1.67,1.67,0,0,1-1.31.63A1.07,1.07,0,0,1,15,40Zm2.31.22a.6.6,0,0,0,.11-.25V39.4a2.74,2.74,0,0,0-.93-.18c-.63,0-1.06.27-1.06.72a.75.75,0,0,0,.84.73A1.36,1.36,0,0,0,17.31,40.2Z"/><path class="cls-34" d="M18.82,36.86v-.65h.44v.65Zm0,4.09V37.57h.44V41Z"/><path class="cls-34" d="M20.22,36.21h.44v4a.37.37,0,0,0,.4.4,1,1,0,0,0,.35-.07l.08.36a2.18,2.18,0,0,1-.61.11.6.6,0,0,1-.66-.65Z"/><polygon class="cls-35" points="7.99 30.44 10.24 26.55 12.49 30.44 7.99 30.44"/><polygon class="cls-36" points="12.49 30.44 10.24 26.55 14.74 26.55 12.49 30.44"/><polygon class="cls-37" points="14.74 26.55 10.24 26.55 12.49 22.66 14.74 26.55"/><polygon class="cls-35" points="12.49 22.66 10.24 26.55 7.99 22.66 12.49 22.66"/><polygon class="cls-38" points="7.99 22.66 10.24 26.55 5.75 26.55 7.99 22.66"/><polygon class="cls-39" points="5.75 26.55 10.24 26.55 7.99 30.44 5.75 26.55"/><polygon class="cls-35" points="18.45 30.44 20.7 26.55 22.95 30.44 18.45 30.44"/><polygon class="cls-36" points="22.95 30.44 20.7 26.55 25.2 26.55 22.95 30.44"/><polygon class="cls-37" points="25.2 26.55 20.7 26.55 22.95 22.66 25.2 26.55"/><polygon class="cls-35" points="22.95 22.66 20.7 26.55 18.45 22.66 22.95 22.66"/><polygon class="cls-38" points="18.45 22.66 20.7 26.55 16.2 26.55 18.45 22.66"/><polygon class="cls-39" points="16.2 26.55 20.7 26.55 18.45 30.44 16.2 26.55"/></g></g></svg>