<svg xmlns="http://www.w3.org/2000/svg" viewBox="0 0 34.27 35.74"><defs><style>.cls-1{fill:#91f0ff;}.cls-2{fill:#0ba5f4;}.cls-3{fill:#29bbf1;}.cls-4{fill:#68f3fb;}.cls-5{fill:#84cde0;}.cls-6{fill:#6bb6ef;}.cls-7{fill:#2145a2;}.cls-8{fill:#4170ce;}.cls-9{fill:#5380c9;}.cls-10{fill:#4165a3;}.cls-11{fill:#175ab2;}.cls-12{fill:#0951b2;}.cls-13{fill:#6191d6;}.cls-14{fill:#6076df;}.cls-15{fill:#85e8fb;}.cls-16{fill:#7ce1f2;}.cls-17{fill:#4bd4f7;}.cls-18{fill:#70e1fd;}.cls-19{fill:#69cafb;}.cls-20{fill:#54a9ef;}.cls-21{fill:#42a3e6;}.cls-22{fill:#1f73ca;}.cls-23{fill:#0da4f4;}.cls-24{fill:#0b8eed;}.cls-25{fill:#0b68d4;}.cls-26{fill:#0863b4;}.cls-27{fill:#042d9f;}.cls-28{fill:#032f87;}.cls-29{fill:#02237d;}.cls-30{fill:#03408d;}.cls-31{fill:#022e90;}.cls-32{fill:#0876dd;}.cls-33{fill:#0539b3;}</style></defs><title>heavyrain-only</title><g id="레이어_2" data-name="레이어 2"><g id="레이어_1-2" data-name="레이어 1"><polygon class="cls-1" points="5.92 6.82 6.79 5.08 8.62 4.17 17.22 9.93 5.92 6.82"/><polygon class="cls-2" points="5.92 6.82 12.3 15.4 17.22 9.93 5.92 6.82"/><polygon class="cls-3" points="5.92 6.82 12.3 15.4 1.27 14.02 5.92 6.82"/><polygon class="cls-4" points="5.92 6.82 1.8 9.6 1.27 14.02 5.92 6.82"/><polygon class="cls-5" points="0 12.66 1.8 9.6 1.27 14.02 0 12.66"/><polygon class="cls-6" points="0 12.66 0 16.33 1.27 14.02 0 12.66"/><polygon class="cls-7" points="1.67 17.96 12.3 15.4 1.27 14.02 1.67 17.96"/><polygon class="cls-8" points="1.67 17.96 12.3 15.4 1.27 14.02 1.67 17.96"/><polygon class="cls-9" points="1.67 17.96 12.3 15.4 3.09 20.51 1.67 17.96"/><polygon class="cls-10" points="6.3 21.35 12.3 15.4 3.09 20.51 6.3 21.35"/><polygon class="cls-11" points="6.3 21.35 12.3 15.4 12.3 21.35 6.3 21.35"/><polygon class="cls-12" points="17.49 21.35 12.3 15.4 12.3 21.35 17.49 21.35"/><polygon class="cls-13" points="1.67 17.96 0 16.33 1.27 14.02 1.67 17.96"/><polygon class="cls-14" points="1.67 17.96 0 16.33 3.09 20.51 1.67 17.96"/><polygon class="cls-15" points="12.6 4.17 8.62 4.17 17.22 9.93 12.6 4.17"/><polygon class="cls-16" points="12.6 4.17 15.56 1.48 17.22 9.93 12.6 4.17"/><polygon class="cls-17" points="23.33 6.56 15.56 1.48 17.22 9.93 23.33 6.56"/><polygon class="cls-18" points="23.33 6.56 15.56 1.48 19.81 0 23.33 6.56"/><polygon class="cls-19" points="23.33 6.56 23.33 0.58 19.81 0 23.33 6.56"/><polygon class="cls-20" points="23.33 6.56 23.33 0.58 26.3 2.44 23.33 6.56"/><polygon class="cls-21" points="23.33 6.56 28.49 5.21 26.3 2.44 23.33 6.56"/><polygon class="cls-22" points="23.33 6.56 28.49 5.21 29.45 7.59 23.33 6.56"/><polygon class="cls-23" points="23.33 6.56 23.33 12.64 17.22 9.93 23.33 6.56"/><polygon class="cls-24" points="23.33 6.56 23.33 12.64 29.45 7.59 23.33 6.56"/><polygon class="cls-25" points="32.09 9 23.33 12.64 29.45 7.59 32.09 9"/><polygon class="cls-26" points="32.09 9 23.33 12.64 34.02 11.96 32.09 9"/><polygon class="cls-27" points="34.27 15.4 23.33 12.64 34.02 11.96 34.27 15.4"/><polygon class="cls-28" points="34.27 15.4 23.33 12.64 33.31 18.26 34.27 15.4"/><polygon class="cls-29" points="30.74 20.51 23.33 12.64 33.31 18.26 30.74 20.51"/><polygon class="cls-28" points="30.74 20.51 23.33 12.64 27.07 21.35 30.74 20.51"/><polygon class="cls-30" points="22.51 21.35 23.33 12.64 27.07 21.35 22.51 21.35"/><polygon class="cls-31" points="22.51 21.35 23.33 12.64 17.49 21.35 22.51 21.35"/><polygon class="cls-32" points="12.3 15.4 23.33 12.64 17.22 9.93 12.3 15.4"/><polygon class="cls-33" points="12.3 15.4 23.33 12.64 17.49 21.35 12.3 15.4"/><polygon class="cls-4" points="17.22 25.89 15.19 25.34 15.12 25.48 13.5 29.09 17.22 29.91 17.22 25.89"/><polygon class="cls-26" points="17.22 35.74 17.22 34.08 15.14 35.1 17.22 35.74"/><polygon class="cls-19" points="17.22 22.05 15.19 25.34 17.22 25.89 17.22 22.05"/><polygon class="cls-26" points="13.48 32.48 13.48 32.49 15.12 35.09 15.14 35.1 17.22 34.08 17.22 31.82 13.48 32.48"/><polygon class="cls-3" points="17.22 29.91 13.5 29.09 13.48 29.12 13.48 32.48 17.22 31.82 17.22 29.91"/><polygon class="cls-24" points="17.22 25.89 19.26 25.34 19.32 25.48 20.95 29.09 17.22 29.91 17.22 25.89"/><polygon class="cls-29" points="17.22 35.74 17.22 34.08 19.31 35.1 17.22 35.74"/><polygon class="cls-3" points="17.22 22.05 19.26 25.34 17.22 25.89 17.22 22.05"/><polygon class="cls-31" points="20.96 32.48 20.96 32.49 19.32 35.09 19.31 35.1 17.22 34.08 17.22 31.82 20.96 32.48"/><polygon class="cls-26" points="17.22 29.91 20.95 29.09 20.96 29.12 20.96 32.48 17.22 31.82 17.22 29.91"/><polygon class="cls-4" points="26.4 24.69 25.31 24.39 25.27 24.47 24.4 26.4 26.4 26.85 26.4 24.69"/><polygon class="cls-26" points="26.4 29.97 26.4 29.07 25.28 29.62 26.4 29.97"/><polygon class="cls-19" points="26.4 22.63 25.31 24.39 26.4 24.69 26.4 22.63"/><polygon class="cls-26" points="24.39 28.22 24.39 28.23 25.27 29.62 25.28 29.62 26.4 29.07 26.4 27.87 24.39 28.22"/><polygon class="cls-3" points="26.4 26.85 24.4 26.4 24.39 26.42 24.39 28.22 26.4 27.87 26.4 26.85"/><polygon class="cls-24" points="26.4 24.69 27.49 24.39 27.52 24.47 28.39 26.4 26.4 26.85 26.4 24.69"/><polygon class="cls-29" points="26.4 29.97 26.4 29.07 27.52 29.62 26.4 29.97"/><polygon class="cls-3" points="26.4 22.63 27.49 24.39 26.4 24.69 26.4 22.63"/><polygon class="cls-31" points="28.4 28.22 28.4 28.23 27.52 29.62 27.52 29.62 26.4 29.07 26.4 27.87 28.4 28.22"/><polygon class="cls-26" points="26.4 26.85 28.39 26.4 28.4 26.42 28.4 28.22 26.4 27.87 26.4 26.85"/><polygon class="cls-4" points="7.69 25.27 6.6 24.98 6.57 25.05 5.7 26.98 7.69 27.43 7.69 25.27"/><polygon class="cls-26" points="7.69 30.55 7.69 29.66 6.58 30.2 7.69 30.55"/><polygon class="cls-19" points="7.69 23.21 6.6 24.98 7.69 25.27 7.69 23.21"/><polygon class="cls-26" points="5.69 28.8 5.69 28.81 6.57 30.2 6.58 30.2 7.69 29.66 7.69 28.45 5.69 28.8"/><polygon class="cls-3" points="7.69 27.43 5.7 26.98 5.69 27 5.69 28.8 7.69 28.45 7.69 27.43"/><polygon class="cls-24" points="7.69 25.27 8.79 24.98 8.82 25.05 9.69 26.98 7.69 27.43 7.69 25.27"/><polygon class="cls-29" points="7.69 30.55 7.69 29.66 8.81 30.2 7.69 30.55"/><polygon class="cls-3" points="7.69 23.21 8.79 24.98 7.69 25.27 7.69 23.21"/><polygon class="cls-31" points="9.7 28.8 9.7 28.81 8.82 30.2 8.81 30.2 7.69 29.66 7.69 28.45 9.7 28.8"/><polygon class="cls-26" points="7.69 27.43 9.69 26.98 9.7 27 9.7 28.8 7.69 28.45 7.69 27.43"/></g></g></svg>