<svg xmlns="http://www.w3.org/2000/svg" viewBox="0 0 50.99 44.21"><defs><style>.cls-1{fill:#68f3fb;}.cls-2{fill:#0863b4;}.cls-3{fill:#69cafb;}.cls-4{fill:#29bbf1;}.cls-5{fill:#0b8eed;}.cls-6{fill:#02237d;}.cls-7{fill:#022e90;}.cls-8{fill:#ffce29;}.cls-9{fill:#ff9b43;}.cls-10{fill:#f78851;}.cls-11{fill:#e55f06;}.cls-12{fill:#fe6c05;}.cls-13{fill:#ff8629;}.cls-14{fill:#ffa31e;}.cls-15{fill:#fa960a;}.cls-16{fill:#91f0ff;}.cls-17{fill:#0ba5f4;}.cls-18{fill:#84cde0;}.cls-19{fill:#6bb6ef;}.cls-20{fill:#2145a2;}.cls-21{fill:#4170ce;}.cls-22{fill:#5380c9;}.cls-23{fill:#4165a3;}.cls-24{fill:#175ab2;}.cls-25{fill:#0951b2;}.cls-26{fill:#6191d6;}.cls-27{fill:#6076df;}.cls-28{fill:#85e8fb;}.cls-29{fill:#7ce1f2;}.cls-30{fill:#4bd4f7;}.cls-31{fill:#70e1fd;}.cls-32{fill:#54a9ef;}.cls-33{fill:#42a3e6;}.cls-34{fill:#1f73ca;}.cls-35{fill:#0da4f4;}.cls-36{fill:#0b68d4;}.cls-37{fill:#042d9f;}.cls-38{fill:#032f87;}.cls-39{fill:#03408d;}.cls-40{fill:#0876dd;}.cls-41{fill:#0539b3;}.cls-42{fill:#fff;}</style></defs><title>rainnight</title><g id="레이어_2" data-name="레이어 2"><g id="Layer_1" data-name="Layer 1"><polygon class="cls-1" points="19.34 26.61 18.43 26.36 18.4 26.43 17.67 28.03 19.34 28.4 19.34 26.61"/><polygon class="cls-2" points="19.34 31 19.34 30.25 18.4 30.71 19.34 31"/><polygon class="cls-3" points="19.34 24.9 18.43 26.36 19.34 26.61 19.34 24.9"/><polygon class="cls-2" points="17.67 29.54 17.67 29.55 18.4 30.71 18.4 30.71 19.34 30.25 19.34 29.25 17.67 29.54"/><polygon class="cls-4" points="19.34 28.4 17.67 28.03 17.67 28.05 17.67 29.54 19.34 29.25 19.34 28.4"/><polygon class="cls-5" points="19.34 26.61 20.24 26.36 20.27 26.43 21 28.03 19.34 28.4 19.34 26.61"/><polygon class="cls-6" points="19.34 31 19.34 30.25 20.27 30.71 19.34 31"/><polygon class="cls-4" points="19.34 24.9 20.24 26.36 19.34 26.61 19.34 24.9"/><polygon class="cls-7" points="21 29.54 21 29.55 20.27 30.71 20.27 30.71 19.34 30.25 19.34 29.25 21 29.54"/><polygon class="cls-2" points="19.34 28.4 21 28.03 21 28.05 21 29.54 19.34 29.25 19.34 28.4"/><polygon class="cls-1" points="25.35 26.61 24.45 26.36 24.42 26.43 23.69 28.03 25.35 28.4 25.35 26.61"/><polygon class="cls-2" points="25.35 31 25.35 30.25 24.42 30.71 25.35 31"/><polygon class="cls-3" points="25.35 24.9 24.45 26.36 25.35 26.61 25.35 24.9"/><polygon class="cls-2" points="23.68 29.54 23.68 29.55 24.42 30.71 24.42 30.71 25.35 30.25 25.35 29.25 23.68 29.54"/><polygon class="cls-4" points="25.35 28.4 23.69 28.03 23.68 28.05 23.68 29.54 25.35 29.25 25.35 28.4"/><polygon class="cls-5" points="25.35 26.61 26.26 26.36 26.29 26.43 27.01 28.03 25.35 28.4 25.35 26.61"/><polygon class="cls-6" points="25.35 31 25.35 30.25 26.28 30.71 25.35 31"/><polygon class="cls-4" points="25.35 24.9 26.26 26.36 25.35 26.61 25.35 24.9"/><polygon class="cls-7" points="27.02 29.54 27.02 29.55 26.29 30.71 26.28 30.71 25.35 30.25 25.35 29.25 27.02 29.54"/><polygon class="cls-2" points="25.35 28.4 27.01 28.03 27.02 28.05 27.02 29.54 25.35 29.25 25.35 28.4"/><polygon class="cls-1" points="31.37 26.61 30.46 26.36 30.43 26.43 29.71 28.03 31.37 28.4 31.37 26.61"/><polygon class="cls-2" points="31.37 31 31.37 30.25 30.44 30.71 31.37 31"/><polygon class="cls-3" points="31.37 24.9 30.46 26.36 31.37 26.61 31.37 24.9"/><polygon class="cls-2" points="29.7 29.54 29.7 29.55 30.43 30.71 30.44 30.71 31.37 30.25 31.37 29.25 29.7 29.54"/><polygon class="cls-4" points="31.37 28.4 29.71 28.03 29.7 28.05 29.7 29.54 31.37 29.25 31.37 28.4"/><polygon class="cls-5" points="31.37 26.61 32.28 26.36 32.31 26.43 33.03 28.03 31.37 28.4 31.37 26.61"/><polygon class="cls-6" points="31.37 31 31.37 30.25 32.3 30.71 31.37 31"/><polygon class="cls-4" points="31.37 24.9 32.28 26.36 31.37 26.61 31.37 24.9"/><polygon class="cls-7" points="33.04 29.54 33.04 29.55 32.31 30.71 32.3 30.71 31.37 30.25 31.37 29.25 33.04 29.54"/><polygon class="cls-2" points="31.37 28.4 33.03 28.03 33.04 28.05 33.04 29.54 31.37 29.25 31.37 28.4"/><polygon class="cls-8" points="11.79 0 15.35 1.5 12.81 2.11 11.79 0"/><polygon class="cls-9" points="17.67 3.55 15.35 1.5 12.81 2.11 17.67 3.55"/><polygon class="cls-8" points="17.67 3.55 18.35 6.09 12.81 2.11 17.67 3.55"/><polygon class="cls-9" points="13.75 4.23 18.35 6.09 12.81 2.11 13.75 4.23"/><polygon class="cls-10" points="13.75 4.23 18.35 6.09 13.32 6.69 13.75 4.23"/><polygon class="cls-9" points="18.61 9.36 18.35 6.09 13.32 6.69 18.61 9.36"/><polygon class="cls-11" points="18.61 9.36 17.51 11.68 13.32 6.69 18.61 9.36"/><polygon class="cls-12" points="12.77 8.91 17.51 11.68 13.32 6.69 12.77 8.91"/><polygon class="cls-13" points="12.77 8.91 17.51 11.68 16.04 13.75 12.77 8.91"/><polygon class="cls-14" points="12.77 8.91 13.93 15.17 16.04 13.75 12.77 8.91"/><polygon class="cls-15" points="12.77 8.91 13.93 15.17 10.98 10.79 12.77 8.91"/><polygon class="cls-10" points="12.32 15.72 13.93 15.17 10.98 10.79 12.32 15.72"/><polygon class="cls-13" points="12.32 15.72 9.41 11.94 10.98 10.79 12.32 15.72"/><polygon class="cls-12" points="12.32 15.72 9.41 11.94 10.44 15.92 12.32 15.72"/><polygon class="cls-11" points="7.98 12.8 9.41 11.94 10.44 15.92 7.98 12.8"/><polygon class="cls-12" points="7.98 12.8 8.78 15.72 10.44 15.92 7.98 12.8"/><polygon class="cls-9" points="7.98 12.8 8.78 15.72 6.67 12.87 7.98 12.8"/><polygon class="cls-11" points="6.79 14.98 8.78 15.72 6.67 12.87 6.79 14.98"/><polygon class="cls-11" points="6.79 14.98 5.4 14.17 6.67 12.87 6.79 14.98"/><polygon class="cls-12" points="4.27 12.87 5.4 14.17 6.67 12.87 4.27 12.87"/><polygon class="cls-16" points="14.79 10.11 15.6 8.5 17.31 7.66 25.3 13.01 14.79 10.11"/><polygon class="cls-17" points="14.79 10.11 20.73 18.09 25.3 13.01 14.79 10.11"/><polygon class="cls-4" points="14.79 10.11 20.73 18.09 10.48 16.81 14.79 10.11"/><polygon class="cls-1" points="14.79 10.11 10.96 12.7 10.48 16.81 14.79 10.11"/><polygon class="cls-18" points="9.29 15.55 10.96 12.7 10.48 16.81 9.29 15.55"/><polygon class="cls-19" points="9.29 15.55 9.29 18.96 10.48 16.81 9.29 15.55"/><polygon class="cls-20" points="10.84 20.47 20.73 18.09 10.48 16.81 10.84 20.47"/><polygon class="cls-21" points="10.84 20.47 20.73 18.09 10.48 16.81 10.84 20.47"/><polygon class="cls-22" points="10.84 20.47 20.73 18.09 12.16 22.85 10.84 20.47"/><polygon class="cls-23" points="15.15 23.62 20.73 18.09 12.16 22.85 15.15 23.62"/><polygon class="cls-24" points="15.15 23.62 20.73 18.09 20.73 23.62 15.15 23.62"/><polygon class="cls-25" points="25.55 23.62 20.73 18.09 20.73 23.62 25.55 23.62"/><polygon class="cls-26" points="10.84 20.47 9.29 18.96 10.48 16.81 10.84 20.47"/><polygon class="cls-27" points="10.84 20.47 9.29 18.96 12.16 22.85 10.84 20.47"/><polygon class="cls-28" points="21.01 7.66 17.31 7.66 25.3 13.01 21.01 7.66"/><polygon class="cls-29" points="21.01 7.66 23.76 5.15 25.3 13.01 21.01 7.66"/><polygon class="cls-30" points="30.98 9.87 23.76 5.15 25.3 13.01 30.98 9.87"/><polygon class="cls-31" points="30.98 9.87 23.76 5.15 27.71 3.77 30.98 9.87"/><polygon class="cls-3" points="30.98 9.87 30.98 4.31 27.71 3.77 30.98 9.87"/><polygon class="cls-32" points="30.98 9.87 30.98 4.31 33.74 6.05 30.98 9.87"/><polygon class="cls-33" points="30.98 9.87 35.78 8.62 33.74 6.05 30.98 9.87"/><polygon class="cls-34" points="30.98 9.87 35.78 8.62 36.67 10.83 30.98 9.87"/><polygon class="cls-35" points="30.98 9.87 30.98 15.53 25.3 13.01 30.98 9.87"/><polygon class="cls-5" points="30.98 9.87 30.98 15.53 36.67 10.83 30.98 9.87"/><polygon class="cls-36" points="39.13 12.15 30.98 15.53 36.67 10.83 39.13 12.15"/><polygon class="cls-2" points="39.13 12.15 30.98 15.53 40.92 14.89 39.13 12.15"/><polygon class="cls-37" points="41.16 18.09 30.98 15.53 40.92 14.89 41.16 18.09"/><polygon class="cls-38" points="41.16 18.09 30.98 15.53 40.26 20.75 41.16 18.09"/><polygon class="cls-6" points="37.87 22.85 30.98 15.53 40.26 20.75 37.87 22.85"/><polygon class="cls-38" points="37.87 22.85 30.98 15.53 34.46 23.62 37.87 22.85"/><polygon class="cls-39" points="30.22 23.62 30.98 15.53 34.46 23.62 30.22 23.62"/><polygon class="cls-7" points="30.22 23.62 30.98 15.53 25.55 23.62 30.22 23.62"/><polygon class="cls-40" points="20.73 18.09 30.98 15.53 25.3 13.01 20.73 18.09"/><polygon class="cls-41" points="20.73 18.09 30.98 15.53 25.55 23.62 20.73 18.09"/><path class="cls-42" d="M0,42.76v-4.6H.45v4.2H3.11v.4Z"/><path class="cls-42" d="M3.71,38.67V38h.44v.64Zm0,4.09V39.38h.44v3.38Z"/><path class="cls-42" d="M4.89,41.08a1.65,1.65,0,0,1,1.57-1.76,1.55,1.55,0,0,1,1.29.77v-.71h.4v3.39a1.48,1.48,0,0,1-1.66,1.44A1.61,1.61,0,0,1,5,43.44l.27-.21a1.4,1.4,0,0,0,1.24.63,1.09,1.09,0,0,0,1.22-1.09v-.66a1.53,1.53,0,0,1-1.24.7A1.66,1.66,0,0,1,4.89,41.08Zm2.82.52v-1a1.35,1.35,0,0,0-1.18-.85,1.3,1.3,0,0,0-1.2,1.38,1.31,1.31,0,0,0,1.26,1.35A1.2,1.2,0,0,0,7.71,41.6Z"/><path class="cls-42" d="M11.93,42.76h-.44V40.87c0-.76-.27-1.14-.78-1.14a1.32,1.32,0,0,0-1.18,1v2.07H9.09V38h.44v2.12a1.53,1.53,0,0,1,1.33-.83c.78,0,1.07.59,1.07,1.46Z"/><path class="cls-42" d="M14.45,42.6a1.88,1.88,0,0,1-.76.2.64.64,0,0,1-.72-.65V39.73h-.46v-.35H13V38.24h.44v1.14h.78v.35h-.78V42a.38.38,0,0,0,.41.36,1,1,0,0,0,.51-.15Z"/><path class="cls-42" d="M18.31,39.77a1.3,1.3,0,0,0-1.24.89v2.1h-.44V39.38H17v.81a1.34,1.34,0,0,1,1.08-.83h.19Z"/><path class="cls-42" d="M18.57,41.79c0-.63.58-1,1.43-1a2.9,2.9,0,0,1,1,.17v-.3a.9.9,0,0,0-.95-1,2,2,0,0,0-1.09.41l-.15-.3a2.25,2.25,0,0,1,1.29-.44,1.25,1.25,0,0,1,1.34,1.35v1.52c0,.12.05.18.16.18v.39h-.18a.34.34,0,0,1-.36-.31V42.2a1.69,1.69,0,0,1-1.31.63A1.08,1.08,0,0,1,18.57,41.79Zm2.31.22a.43.43,0,0,0,.11-.25v-.55a2.69,2.69,0,0,0-.93-.17c-.63,0-1.06.27-1.06.72a.76.76,0,0,0,.84.73A1.34,1.34,0,0,0,20.88,42Z"/><path class="cls-42" d="M22.39,38.67V38h.44v.64Zm0,4.09V39.38h.44v3.38Z"/><path class="cls-42" d="M26.61,42.76h-.44V40.87c0-.79-.22-1.14-.72-1.14a1.37,1.37,0,0,0-1.24,1v2.07h-.44V39.38h.41v.77a1.64,1.64,0,0,1,1.43-.83c.76,0,1,.57,1,1.46Z"/><path class="cls-42" d="M28.92,41.79c0-.63.58-1,1.43-1a2.9,2.9,0,0,1,1,.17v-.3a.9.9,0,0,0-.95-1,2,2,0,0,0-1.09.41l-.15-.3a2.25,2.25,0,0,1,1.29-.44,1.25,1.25,0,0,1,1.34,1.35v1.52c0,.12,0,.18.15.18v.39h-.17a.33.33,0,0,1-.36-.31V42.2a1.69,1.69,0,0,1-1.31.63A1.08,1.08,0,0,1,28.92,41.79Zm2.31.22a.43.43,0,0,0,.11-.25v-.55a2.69,2.69,0,0,0-.93-.17c-.63,0-1.06.27-1.06.72a.76.76,0,0,0,.84.73A1.34,1.34,0,0,0,31.23,42Z"/><path class="cls-42" d="M34.33,42.6a2,2,0,0,1-.77.2.64.64,0,0,1-.71-.65V39.73h-.47v-.35h.47V38.24h.44v1.14h.78v.35h-.78V42a.38.38,0,0,0,.41.36,1.09,1.09,0,0,0,.51-.15Z"/><path class="cls-42" d="M39.34,42.76H38.9V40.87c0-.79-.23-1.14-.72-1.14a1.37,1.37,0,0,0-1.24,1v2.07H36.5V39.38h.4v.77a1.65,1.65,0,0,1,1.44-.83c.75,0,1,.57,1,1.46Z"/><path class="cls-42" d="M40.25,38.67V38h.44v.64Zm0,4.09V39.38h.44v3.38Z"/><path class="cls-42" d="M41.43,41.08A1.65,1.65,0,0,1,43,39.32a1.55,1.55,0,0,1,1.29.77v-.71h.4v3.39A1.48,1.48,0,0,1,43,44.21a1.61,1.61,0,0,1-1.51-.77l.27-.21a1.4,1.4,0,0,0,1.24.63,1.09,1.09,0,0,0,1.22-1.09v-.66a1.53,1.53,0,0,1-1.24.7A1.66,1.66,0,0,1,41.43,41.08Zm2.82.52v-1a1.35,1.35,0,0,0-1.18-.85,1.3,1.3,0,0,0-1.2,1.38,1.31,1.31,0,0,0,1.26,1.35A1.2,1.2,0,0,0,44.25,41.6Z"/><path class="cls-42" d="M48.47,42.76H48V40.87c0-.76-.27-1.14-.78-1.14a1.32,1.32,0,0,0-1.18,1v2.07h-.44V38h.44v2.12a1.53,1.53,0,0,1,1.33-.83c.78,0,1.07.59,1.07,1.46Z"/><path class="cls-42" d="M51,42.6a1.88,1.88,0,0,1-.76.2.64.64,0,0,1-.72-.65V39.73h-.46v-.35h.46V38.24H50v1.14h.78v.35H50V42a.38.38,0,0,0,.41.36,1,1,0,0,0,.51-.15Z"/></g></g></svg>