<svg xmlns="http://www.w3.org/2000/svg" viewBox="0 0 41.37 27.28"><defs><style>.cls-1{fill:#ff750a;}.cls-2{fill:#fff51f;}.cls-3{fill:#fffe85;}.cls-4{fill:#ffe41f;}.cls-5{fill:#ff8629;}.cls-6{fill:#ffa31e;}.cls-7{fill:#ed6902;}.cls-8{fill:#ffce29;}.cls-9{fill:#ff9b43;}.cls-10{fill:#f78851;}.cls-11{fill:#fe6c05;}.cls-12{fill:#e55f06;}.cls-13{fill:#91f0ff;}.cls-14{fill:#0ba5f4;}.cls-15{fill:#29bbf1;}.cls-16{fill:#68f3fb;}.cls-17{fill:#84cde0;}.cls-18{fill:#6bb6ef;}.cls-19{fill:#2145a2;}.cls-20{fill:#4170ce;}.cls-21{fill:#5380c9;}.cls-22{fill:#4165a3;}.cls-23{fill:#175ab2;}.cls-24{fill:#0951b2;}.cls-25{fill:#6191d6;}.cls-26{fill:#6076df;}.cls-27{fill:#85e8fb;}.cls-28{fill:#7ce1f2;}.cls-29{fill:#4bd4f7;}.cls-30{fill:#70e1fd;}.cls-31{fill:#69cafb;}.cls-32{fill:#54a9ef;}.cls-33{fill:#42a3e6;}.cls-34{fill:#1f73ca;}.cls-35{fill:#0da4f4;}.cls-36{fill:#0b8eed;}.cls-37{fill:#0b68d4;}.cls-38{fill:#0863b4;}.cls-39{fill:#042d9f;}.cls-40{fill:#032f87;}.cls-41{fill:#02237d;}.cls-42{fill:#03408d;}.cls-43{fill:#022e90;}.cls-44{fill:#0876dd;}.cls-45{fill:#0539b3;}</style></defs><title>자산 1</title><g id="레이어_2" data-name="레이어 2"><g id="레이어_1-2" data-name="레이어 1"><polygon class="cls-1" points="31.37 11.06 29.12 17.14 31.37 17.14 31.37 11.06"/><polygon class="cls-2" points="31.37 2.98 29.12 2.98 31.37 9.05 31.37 2.98"/><polygon class="cls-3" points="31.37 9.05 29.12 2.98 29.07 2.98 25.39 5.65 31.37 9.8 31.37 9.05"/><polygon class="cls-4" points="31.37 9.8 25.39 5.65 25.35 5.68 23.93 10.06 31.37 10.06 31.37 9.8"/><polygon class="cls-5" points="31.37 10.31 25.34 14.42 25.35 14.43 29.07 17.14 29.12 17.14 31.37 11.06 31.37 10.31"/><polygon class="cls-6" points="31.37 10.06 23.93 10.06 25.34 14.42 31.37 10.31 31.37 10.06"/><polygon class="cls-7" points="31.37 11.06 33.62 17.14 31.37 17.14 31.37 11.06"/><polygon class="cls-8" points="31.37 2.98 33.62 2.98 31.37 9.05 31.37 2.98"/><polygon class="cls-9" points="31.37 9.05 33.62 2.98 33.67 2.98 37.35 5.65 31.37 9.8 31.37 9.05"/><polygon class="cls-10" points="31.37 9.8 37.35 5.65 37.39 5.68 38.82 10.06 31.37 10.06 31.37 9.8"/><polygon class="cls-11" points="31.37 10.31 37.4 14.42 37.39 14.43 33.67 17.14 33.62 17.14 31.37 11.06 31.37 10.31"/><polygon class="cls-12" points="31.37 10.06 38.82 10.06 37.4 14.42 31.37 10.31 31.37 10.06"/><polygon class="cls-9" points="31.37 0 31.37 0 31.37 2.22 33.63 2.22 31.37 0"/><polygon class="cls-8" points="29.12 2.22 31.37 2.22 31.37 0 29.12 2.22"/><polygon class="cls-9" points="25.89 1.62 25.89 1.62 27.1 3.48 28.99 2.25 25.89 1.62"/><polygon class="cls-8" points="25.21 4.71 27.1 3.48 25.89 1.62 25.21 4.71"/><polygon class="cls-9" points="22.18 5.96 22.18 5.96 24.21 6.87 25.13 4.81 22.18 5.96"/><polygon class="cls-8" points="23.29 8.93 24.21 6.87 22.18 5.96 23.29 8.93"/><polygon class="cls-9" points="21.44 11.63 21.44 11.63 23.63 11.28 23.27 9.05 21.44 11.63"/><polygon class="cls-8" points="23.98 13.51 23.63 11.28 21.44 11.63 23.98 13.51"/><polygon class="cls-9" points="23.9 16.78 23.9 16.78 25.55 15.3 24.04 13.63 23.9 16.78"/><polygon class="cls-8" points="27.05 16.98 25.55 15.3 23.9 16.78 27.05 16.98"/><polygon class="cls-9" points="28.77 19.77 28.77 19.77 29.34 17.63 27.16 17.04 28.77 19.77"/><polygon class="cls-8" points="31.52 18.21 29.34 17.63 28.77 19.77 31.52 18.21"/><polygon class="cls-9" points="34.48 19.62 34.48 19.62 33.79 17.51 31.65 18.21 34.48 19.62"/><polygon class="cls-8" points="35.94 16.82 33.79 17.51 34.48 19.62 35.94 16.82"/><polygon class="cls-9" points="39.19 16.38 39.19 16.38 37.46 14.99 36.04 16.74 39.19 16.38"/><polygon class="cls-8" points="38.88 13.24 37.46 14.99 39.19 16.38 38.88 13.24"/><polygon class="cls-9" points="41.37 11.11 41.37 11.11 39.17 10.88 38.93 13.12 41.37 11.11"/><polygon class="cls-8" points="39.4 8.63 39.17 10.88 41.37 11.11 39.4 8.63"/><polygon class="cls-9" points="40.33 5.49 40.33 5.49 38.35 6.5 39.38 8.51 40.33 5.49"/><polygon class="cls-8" points="37.33 4.49 38.35 6.5 40.33 5.49 37.33 4.49"/><polygon class="cls-9" points="36.4 1.35 36.4 1.35 35.29 3.27 37.24 4.39 36.4 1.35"/><polygon class="cls-8" points="33.34 2.14 35.29 3.27 36.4 1.35 33.34 2.14"/><polygon class="cls-13" points="6.11 12.28 7.01 10.48 8.9 9.54 17.79 15.49 6.11 12.28"/><polygon class="cls-14" points="6.11 12.28 12.7 21.14 17.79 15.49 6.11 12.28"/><polygon class="cls-15" points="6.11 12.28 12.7 21.14 1.32 19.71 6.11 12.28"/><polygon class="cls-16" points="6.11 12.28 1.86 15.15 1.32 19.71 6.11 12.28"/><polygon class="cls-17" points="0 18.31 1.86 15.15 1.32 19.71 0 18.31"/><polygon class="cls-18" points="0 18.31 0 22.1 1.32 19.71 0 18.31"/><polygon class="cls-19" points="1.72 23.78 12.7 21.14 1.32 19.71 1.72 23.78"/><polygon class="cls-20" points="1.72 23.78 12.7 21.14 1.32 19.71 1.72 23.78"/><polygon class="cls-21" points="1.72 23.78 12.7 21.14 3.19 26.42 1.72 23.78"/><polygon class="cls-22" points="6.51 27.28 12.7 21.14 3.19 26.42 6.51 27.28"/><polygon class="cls-23" points="6.51 27.28 12.7 21.14 12.7 27.28 6.51 27.28"/><polygon class="cls-24" points="18.06 27.28 12.7 21.14 12.7 27.28 18.06 27.28"/><polygon class="cls-25" points="1.72 23.78 0 22.1 1.32 19.71 1.72 23.78"/><polygon class="cls-26" points="1.72 23.78 0 22.1 3.19 26.42 1.72 23.78"/><polygon class="cls-27" points="13.02 9.54 8.9 9.54 17.79 15.49 13.02 9.54"/><polygon class="cls-28" points="13.02 9.54 16.07 6.76 17.79 15.49 13.02 9.54"/><polygon class="cls-29" points="24.09 12.01 16.07 6.76 17.79 15.49 24.09 12.01"/><polygon class="cls-30" points="24.09 12.01 16.07 6.76 20.45 5.24 24.09 12.01"/><polygon class="cls-31" points="24.09 12.01 24.09 5.83 20.45 5.24 24.09 12.01"/><polygon class="cls-32" points="24.09 12.01 24.09 5.83 27.16 7.76 24.09 12.01"/><polygon class="cls-33" points="24.09 12.01 29.42 10.62 27.16 7.76 24.09 12.01"/><polygon class="cls-34" points="24.09 12.01 29.42 10.62 30.41 13.07 24.09 12.01"/><polygon class="cls-35" points="24.09 12.01 24.09 18.29 17.79 15.49 24.09 12.01"/><polygon class="cls-36" points="24.09 12.01 24.09 18.29 30.41 13.07 24.09 12.01"/><polygon class="cls-37" points="33.14 14.53 24.09 18.29 30.41 13.07 33.14 14.53"/><polygon class="cls-38" points="33.14 14.53 24.09 18.29 35.13 17.59 33.14 14.53"/><polygon class="cls-39" points="35.39 21.14 24.09 18.29 35.13 17.59 35.39 21.14"/><polygon class="cls-40" points="35.39 21.14 24.09 18.29 34.4 24.1 35.39 21.14"/><polygon class="cls-41" points="31.74 26.42 24.09 18.29 34.4 24.1 31.74 26.42"/><polygon class="cls-40" points="31.74 26.42 24.09 18.29 27.96 27.28 31.74 26.42"/><polygon class="cls-42" points="23.24 27.28 24.09 18.29 27.96 27.28 23.24 27.28"/><polygon class="cls-43" points="23.24 27.28 24.09 18.29 18.06 27.28 23.24 27.28"/><polygon class="cls-44" points="12.7 21.14 24.09 18.29 17.79 15.49 12.7 21.14"/><polygon class="cls-45" points="12.7 21.14 24.09 18.29 18.06 27.28 12.7 21.14"/></g></g></svg>