<svg xmlns="http://www.w3.org/2000/svg" viewBox="0 0 34.52 49.06"><defs><style>.cls-1{fill:#91f0ff;}.cls-2{fill:#0ba5f4;}.cls-3{fill:#29bbf1;}.cls-4{fill:#68f3fb;}.cls-5{fill:#84cde0;}.cls-6{fill:#6bb6ef;}.cls-7{fill:#2145a2;}.cls-8{fill:#4170ce;}.cls-9{fill:#5380c9;}.cls-10{fill:#4165a3;}.cls-11{fill:#175ab2;}.cls-12{fill:#0951b2;}.cls-13{fill:#6191d6;}.cls-14{fill:#6076df;}.cls-15{fill:#85e8fb;}.cls-16{fill:#7ce1f2;}.cls-17{fill:#4bd4f7;}.cls-18{fill:#70e1fd;}.cls-19{fill:#69cafb;}.cls-20{fill:#54a9ef;}.cls-21{fill:#42a3e6;}.cls-22{fill:#1f73ca;}.cls-23{fill:#0da4f4;}.cls-24{fill:#0b8eed;}.cls-25{fill:#0b68d4;}.cls-26{fill:#0863b4;}.cls-27{fill:#042d9f;}.cls-28{fill:#032f87;}.cls-29{fill:#02237d;}.cls-30{fill:#03408d;}.cls-31{fill:#022e90;}.cls-32{fill:#0876dd;}.cls-33{fill:#0539b3;}.cls-34{fill:#4d4d4d;}</style></defs><title>lightning</title><g id="레이어_2" data-name="레이어 2"><g id="Layer_1" data-name="Layer 1"><polygon class="cls-1" points="5.96 6.87 6.84 5.12 8.68 4.2 17.35 10 5.96 6.87"/><polygon class="cls-2" points="5.96 6.87 12.39 15.51 17.35 10 5.96 6.87"/><polygon class="cls-3" points="5.96 6.87 12.39 15.51 1.28 14.12 5.96 6.87"/><polygon class="cls-4" points="5.96 6.87 1.81 9.67 1.28 14.12 5.96 6.87"/><polygon class="cls-5" points="0 12.75 1.81 9.67 1.28 14.12 0 12.75"/><polygon class="cls-6" points="0 12.75 0 16.45 1.28 14.12 0 12.75"/><polygon class="cls-7" points="1.68 18.09 12.39 15.51 1.28 14.12 1.68 18.09"/><polygon class="cls-8" points="1.68 18.09 12.39 15.51 1.28 14.12 1.68 18.09"/><polygon class="cls-9" points="1.68 18.09 12.39 15.51 3.11 20.66 1.68 18.09"/><polygon class="cls-10" points="6.35 21.5 12.39 15.51 3.11 20.66 6.35 21.5"/><polygon class="cls-11" points="6.35 21.5 12.39 15.51 12.39 21.5 6.35 21.5"/><polygon class="cls-12" points="17.62 21.5 12.39 15.51 12.39 21.5 17.62 21.5"/><polygon class="cls-13" points="1.68 18.09 0 16.45 1.28 14.12 1.68 18.09"/><polygon class="cls-14" points="1.68 18.09 0 16.45 3.11 20.66 1.68 18.09"/><polygon class="cls-15" points="12.69 4.2 8.68 4.2 17.35 10 12.69 4.2"/><polygon class="cls-16" points="12.69 4.2 15.68 1.49 17.35 10 12.69 4.2"/><polygon class="cls-17" points="23.5 6.61 15.68 1.49 17.35 10 23.5 6.61"/><polygon class="cls-18" points="23.5 6.61 15.68 1.49 19.95 0 23.5 6.61"/><polygon class="cls-19" points="23.5 6.61 23.5 0.58 19.95 0 23.5 6.61"/><polygon class="cls-20" points="23.5 6.61 23.5 0.58 26.49 2.46 23.5 6.61"/><polygon class="cls-21" points="23.5 6.61 28.69 5.25 26.49 2.46 23.5 6.61"/><polygon class="cls-22" points="23.5 6.61 28.69 5.25 29.66 7.64 23.5 6.61"/><polygon class="cls-23" points="23.5 6.61 23.5 12.73 17.35 10 23.5 6.61"/><polygon class="cls-24" points="23.5 6.61 23.5 12.73 29.66 7.64 23.5 6.61"/><polygon class="cls-25" points="32.32 9.07 23.5 12.73 29.66 7.64 32.32 9.07"/><polygon class="cls-26" points="32.32 9.07 23.5 12.73 34.26 12.05 32.32 9.07"/><polygon class="cls-27" points="34.52 15.51 23.5 12.73 34.26 12.05 34.52 15.51"/><polygon class="cls-28" points="34.52 15.51 23.5 12.73 33.55 18.4 34.52 15.51"/><polygon class="cls-29" points="30.96 20.66 23.5 12.73 33.55 18.4 30.96 20.66"/><polygon class="cls-28" points="30.96 20.66 23.5 12.73 27.27 21.5 30.96 20.66"/><polygon class="cls-30" points="22.67 21.5 23.5 12.73 27.27 21.5 22.67 21.5"/><polygon class="cls-31" points="22.67 21.5 23.5 12.73 17.62 21.5 22.67 21.5"/><polygon class="cls-32" points="12.39 15.51 23.5 12.73 17.35 10 12.39 15.51"/><polygon class="cls-33" points="12.39 15.51 23.5 12.73 17.62 21.5 12.39 15.51"/><polygon class="cls-24" points="23.46 26.59 20.6 26.84 19.26 26.95 17.89 29.46 18.63 29.39 18.63 29.4 22.82 27.34 23.46 26.59"/><polygon class="cls-26" points="21.68 28.69 22.82 27.34 18.63 29.4 17.94 30.68 19.84 30.88 21.68 28.69"/><polygon class="cls-29" points="15.39 35.52 15.71 35.8 17.57 33.57 16.21 33.97 15.39 35.52"/><polygon class="cls-29" points="14.45 37.3 15.71 35.8 15.39 35.52 14.45 37.3"/><polygon class="cls-31" points="17.94 30.68 17.57 31.38 18.38 32.61 19.84 30.88 17.94 30.68"/><polygon class="cls-26" points="17.07 32.32 16.21 33.97 17.57 33.57 18.06 32.99 18.38 32.61 17.57 31.38 17.07 32.32"/><polygon class="cls-3" points="18.16 27.05 16.06 27.23 16.01 27.19 12.59 28.35 12.06 29.21 13.86 29.75 18.16 27.05"/><polygon class="cls-3" points="13.76 29.81 13.92 29.8 14 29.8 13.86 29.75 13.76 29.81"/><polygon class="cls-2" points="16.11 27.15 17.1 25.52 14.46 25.27 14.15 25.78 16.01 27.19 16.11 27.15"/><polygon class="cls-4" points="14.15 25.78 12.8 28 12.59 28.35 16.01 27.19 14.15 25.78"/><polygon class="cls-5" points="12.06 29.21 11.58 30 13.76 29.81 13.86 29.75 12.06 29.21"/><polygon class="cls-3" points="18.97 22.45 16.23 22.45 17.34 25.13 18.97 22.45"/><polygon class="cls-19" points="17.34 25.13 16.23 22.45 16.18 22.45 14.46 25.27 17.1 25.52 17.34 25.13"/><polygon class="cls-8" points="18.16 27.05 13.86 29.75 14 29.8 17.89 29.46 19.26 26.95 18.16 27.05"/><polygon class="cls-3" points="16.06 27.23 16.11 27.15 16.01 27.19 16.06 27.23"/><path class="cls-34" d="M2.83,47.49v-5h.49v4.54H6.19v.43Z"/><path class="cls-34" d="M6.84,43.08v-.7h.48v.7Zm0,4.41V43.84h.48v3.65Z"/><path class="cls-34" d="M8.11,45.68a1.78,1.78,0,0,1,1.69-1.9,1.71,1.71,0,0,1,1.41.83v-.77h.42v3.67a1.59,1.59,0,0,1-1.79,1.55,1.76,1.76,0,0,1-1.63-.83L8.5,48a1.54,1.54,0,0,0,1.34.68,1.18,1.18,0,0,0,1.32-1.17v-.72a1.63,1.63,0,0,1-1.34.75A1.8,1.8,0,0,1,8.11,45.68Zm3.05.56V45.11a1.46,1.46,0,0,0-1.27-.91A1.48,1.48,0,0,0,10,47.14,1.29,1.29,0,0,0,11.16,46.24Z"/><path class="cls-34" d="M15.72,47.49h-.48v-2c0-.83-.29-1.24-.84-1.24a1.41,1.41,0,0,0-1.27,1v2.23h-.48V42.38h.48v2.29a1.66,1.66,0,0,1,1.43-.89c.85,0,1.16.64,1.16,1.58Z"/><path class="cls-34" d="M18.44,47.32a1.91,1.91,0,0,1-.82.22.7.7,0,0,1-.77-.7V44.22h-.51v-.38h.51V42.61h.47v1.23h.84v.38h-.84V46.7a.4.4,0,0,0,.44.39,1.13,1.13,0,0,0,.56-.16Z"/><path class="cls-34" d="M22.07,47.49h-.48v-2c0-.87-.24-1.24-.77-1.24a1.48,1.48,0,0,0-1.34,1v2.23H19V43.84h.44v.83A1.78,1.78,0,0,1,21,43.78c.82,0,1.09.62,1.09,1.58Z"/><path class="cls-34" d="M23.06,43.08v-.7h.47v.7Zm0,4.41V43.84h.47v3.65Z"/><path class="cls-34" d="M27.62,47.49h-.48v-2c0-.87-.24-1.24-.77-1.24a1.48,1.48,0,0,0-1.34,1v2.23h-.48V43.84H25v.83a1.79,1.79,0,0,1,1.55-.89c.81,0,1.08.62,1.08,1.58Z"/><path class="cls-34" d="M28.37,45.68a1.79,1.79,0,0,1,1.7-1.9,1.69,1.69,0,0,1,1.4.83v-.77h.43v3.67a1.6,1.6,0,0,1-1.8,1.55,1.76,1.76,0,0,1-1.63-.83l.3-.23a1.52,1.52,0,0,0,1.33.68,1.18,1.18,0,0,0,1.32-1.17v-.72a1.61,1.61,0,0,1-1.34.75A1.8,1.8,0,0,1,28.37,45.68Zm3.05.56V45.11a1.45,1.45,0,0,0-1.27-.91,1.48,1.48,0,0,0,.07,2.94A1.28,1.28,0,0,0,31.42,46.24Z"/></g></g></svg>