<?xml version="1.0" encoding="utf-8"?>
<!-- Generator: Adobe Illustrator 23.0.0, SVG Export Plug-In . SVG Version: 6.00 Build 0)  -->
<svg version="1.1" id="Layer_1" xmlns="http://www.w3.org/2000/svg" xmlns:xlink="http://www.w3.org/1999/xlink" x="0px" y="0px"
	 viewBox="0 0 512 512" style="enable-background:new 0 0 512 512;" xml:space="preserve">
<style type="text/css">
	.st0{fill:#FFFFFF;}
</style>
<g>
	<path class="st0" d="M454.2,140.4c-7,0-13.9-1.1-20.6-3.2l-18.1-5.8c-7.1-2.3-14.8-2.3-21.9,0l-13.7,4.4c-16.2,5.2-33.7,5.2-49.9,0
		l-13.6-4.4c-7.1-2.3-14.8-2.3-21.9,0l-18,5.8c-13.4,4.3-27.8,4.3-41.1,0l-18-5.8c-7.1-2.3-14.8-2.3-21.9,0l-13.6,4.4
		c-16.2,5.3-33.7,5.3-50,0l-13.6-4.4c-7.1-2.3-14.8-2.3-21.9,0l-13.6,4.4c-16.2,5.3-33.7,5.3-50,0L14.9,130
		C3.6,126.3-2.6,114.3,1,103l0.9-2.8c3.6-11.3,15.7-17.5,27-13.9l17.9,5.7c7.1,2.3,14.8,2.3,21.9,0l13.6-4.4c16.2-5.3,33.7-5.3,50,0
		l13.6,4.4c7.1,2.3,14.8,2.3,21.9,0l13.6-4.4c16.3-5.3,33.7-5.3,50,0l13.6,4.4c7.1,2.3,14.8,2.3,21.9,0l13.6-4.4
		c16.2-5.2,33.7-5.2,49.9,0l13.6,4.4c7.1,2.3,14.8,2.3,21.9,0l13.6-4.4c16.2-5.2,33.7-5.2,49.9,0l13.7,4.4c7.1,2.3,14.8,2.3,21.9,0
		l17.9-5.7c11.3-3.6,23.3,2.6,27,13.9l0.9,2.8c3.6,11.3-2.6,23.3-13.9,27l-22.3,7.2C468.2,139.3,461.2,140.4,454.2,140.4z
		 M404.6,115.6c5.2,0,10.3,0.8,15.2,2.4l18.1,5.8c10.6,3.4,22,3.4,32.6,0l22.3-7.2c3.9-1.3,6.1-5.4,4.8-9.4l-0.9-2.8
		c-1.3-3.9-5.4-6.1-9.4-4.8l-17.9,5.7c-9.9,3.2-20.6,3.2-30.5,0l-13.7-4.4c-13.4-4.3-27.9-4.3-41.4,0l-13.6,4.4
		c-9.9,3.2-20.6,3.2-30.5,0l-13.6-4.4c-13.5-4.3-27.9-4.3-41.4,0l-13.6,4.4c-9.9,3.2-20.6,3.2-30.5,0l-13.6-4.4
		c-13.5-4.4-28-4.4-41.4,0l-13.6,4.4c-9.9,3.2-20.6,3.2-30.5,0L128,101c-13.5-4.3-27.9-4.3-41.4,0L73,105.4
		c-9.9,3.2-20.6,3.2-30.5,0l-17.9-5.7c-3.9-1.3-8.1,0.9-9.4,4.8l-0.9,2.8c-1.3,3.9,0.9,8.1,4.8,9.4l17.9,5.8
		c13.5,4.3,27.9,4.3,41.4,0L92,118c9.9-3.2,20.6-3.2,30.5,0l13.6,4.4c13.5,4.3,28,4.3,41.4,0l13.6-4.4c9.9-3.2,20.6-3.2,30.5,0
		l18,5.8c10.6,3.4,22,3.4,32.6,0l18.1-5.8c9.9-3.2,20.6-3.2,30.5,0l13.7,4.4c13.4,4.3,27.9,4.3,41.4,0l13.7-4.4
		C394.4,116.4,399.5,115.6,404.6,115.6L404.6,115.6z"/>
	<path class="st0" d="M454.2,212.3c-7,0-13.9-1.1-20.6-3.2l-22.5-7.2c-4.2-1.4-8.8-1.4-13.1,0l-18.1,5.8c-16.3,5.3-33.7,5.3-50,0
		l-13.6-4.4c-7.1-2.3-14.8-2.3-21.9,0l-13.6,4.4c-16.2,5.3-33.7,5.3-50,0l-13.6-4.4c-7.1-2.3-14.8-2.3-21.9,0l-13.6,4.4
		c-16.2,5.2-33.7,5.2-50,0l-13.6-4.4c-7.1-2.3-14.8-2.3-21.9,0l-18,5.8c-6.5,2.1-13.2,3.2-20.1,3.2c-6.8,0.1-13.3-3.2-17.3-8.7
		c-4.1-5.6-5.2-12.7-3.2-19.3l1-3c2.7-8.6,10.5-14.5,19.5-14.8c2,0,4.1-0.4,6-1l18-5.8c16.2-5.3,33.7-5.3,50,0l13.6,4.4
		c7.1,2.3,14.8,2.3,21.9,0l13.6-4.4c16.3-5.3,33.7-5.3,50,0L245,164c7.1,2.3,14.8,2.3,21.9,0l13.6-4.4c16.2-5.2,33.7-5.2,49.9,0
		l13.6,4.4c7.1,2.3,14.8,2.3,21.9,0l13.6-4.4c16.2-5.3,33.7-5.3,50,0l18.1,5.8c2,0.6,4,1,6,1c9,0.3,16.8,6.3,19.5,14.8l1,3.2
		c2.1,6.5,0.9,13.7-3.1,19.2c-3.9,5.4-10.1,8.6-16.7,8.6L454.2,212.3z M404.6,186.8c3.7,0,7.3,0.6,10.8,1.7l22.5,7.2
		c5.3,1.7,10.7,2.6,16.3,2.6h0.2c2.2,0,4.2-1.1,5.4-2.8c1.4-1.9,1.8-4.4,1.1-6.7l-1-3.2c-0.9-2.9-3.5-5-6.5-5.1
		c-3.4-0.1-6.8-0.7-10-1.7l-18.1-5.8c-13.5-4.4-27.9-4.4-41.4,0l-13.6,4.4c-9.9,3.2-20.6,3.2-30.5,0l-13.6-4.4
		c-13.5-4.3-27.9-4.3-41.4,0l-13.6,4.4c-9.9,3.2-20.6,3.2-30.5,0l-13.6-4.4c-13.5-4.4-28-4.4-41.4,0l-13.6,4.4
		c-9.9,3.2-20.6,3.2-30.5,0l-13.6-4.4c-13.5-4.4-27.9-4.4-41.4,0l-18,5.8c-3.2,1-6.6,1.6-10,1.7c-3,0.2-5.6,2.2-6.4,5.1l-1,3
		c-0.7,2.3-0.3,4.8,1.1,6.8c1.4,1.9,3.5,3,5.9,3h0.1c5.4,0,10.8-0.9,15.9-2.6l18-5.8c9.9-3.2,20.6-3.2,30.5,0l13.6,4.4
		c13.5,4.3,27.9,4.3,41.4,0l13.6-4.4c9.9-3.2,20.6-3.2,30.5,0l13.6,4.4c13.5,4.3,28,4.3,41.4,0l13.6-4.4c9.9-3.2,20.6-3.2,30.5,0
		l13.7,4.4c13.5,4.3,28,4.3,41.4,0l18.1-5.8C397.3,187.4,401,186.8,404.6,186.8L404.6,186.8z"/>
	<path class="st0" d="M256,284.3c-7,0-13.9-1.1-20.6-3.2l-18-5.8c-7.1-2.3-14.8-2.3-21.9,0l-13.6,4.4c-16.2,5.3-33.7,5.3-50,0
		l-13.6-4.4c-7.1-2.3-14.8-2.3-21.9,0l-13.6,4.4c-16.2,5.2-33.7,5.2-50,0l-17.9-5.7c-11.3-3.6-17.5-15.7-13.9-27l0.9-2.8
		c3.6-11.3,15.7-17.5,27-13.9l17.9,5.7c7.1,2.3,14.8,2.3,21.9,0l13.6-4.4c16.2-5.3,33.7-5.3,50,0l13.6,4.4c7.1,2.3,14.8,2.3,21.9,0
		l13.6-4.4c16.2-5.3,33.7-5.3,50,0L245,236c7.1,2.3,14.8,2.3,21.9,0l13.6-4.4c16.2-5.3,33.7-5.3,49.9,0l13.6,4.4
		c7.1,2.3,14.8,2.3,21.9,0l13.6-4.4c16.2-5.3,33.7-5.3,50,0l13.7,4.4c7.1,2.3,14.8,2.3,21.9,0l17.9-5.7c11.3-3.6,23.3,2.6,27,13.9
		l0.9,2.8c3.6,11.3-2.6,23.3-13.9,27l-22.3,7.2c-13.4,4.3-27.7,4.3-41.1,0l-18.1-5.8c-7.1-2.3-14.8-2.3-21.9,0l-13.7,4.4
		c-16.2,5.2-33.7,5.2-49.9,0l-13.6-4.4c-7.1-2.3-14.8-2.3-21.9,0l-18.1,5.8C269.9,283.2,262.9,284.3,256,284.3z M404.7,259.5
		c5.2,0,10.3,0.8,15.2,2.4l18.1,5.8c10.6,3.4,22,3.4,32.6,0l22.3-7.2c3.9-1.3,6.1-5.4,4.8-9.4l-0.9-2.8c-1.3-3.9-5.4-6-9.4-4.8
		l-17.9,5.7c-9.9,3.2-20.6,3.2-30.5,0l-13.7-4.4c-13.5-4.4-27.9-4.4-41.4,0l-13.6,4.4c-9.9,3.2-20.6,3.2-30.5,0l-13.6-4.4
		c-13.5-4.3-27.9-4.3-41.4,0l-13.6,4.4c-9.9,3.2-20.6,3.2-30.5,0l-13.6-4.4c-13.5-4.4-27.9-4.4-41.4,0l-13.6,4.4
		c-9.9,3.2-20.6,3.2-30.5,0l-13.6-4.4c-13.5-4.3-27.9-4.3-41.4,0L73,249.3c-9.9,3.2-20.6,3.2-30.5,0l-17.9-5.7
		c-3.9-1.2-8.1,0.9-9.4,4.8l-0.9,2.8c-1.3,3.9,0.9,8.1,4.8,9.4l17.9,5.7c13.5,4.3,27.9,4.3,41.4,0l13.6-4.4c9.9-3.2,20.6-3.2,30.5,0
		l13.6,4.4c13.5,4.4,28,4.4,41.4,0l13.6-4.4c9.9-3.2,20.6-3.2,30.5,0l18,5.8c10.6,3.4,22,3.4,32.6,0l18.1-5.8
		c9.9-3.2,20.6-3.2,30.5,0l13.7,4.4c13.4,4.3,27.9,4.3,41.4,0l13.7-4.4C394.3,260.3,399.5,259.5,404.7,259.5z"/>
	<path class="st0" d="M454.2,356.3c-7,0-13.9-1.1-20.6-3.2l-18.1-5.8c-7.1-2.3-14.8-2.3-21.9,0l-13.6,4.4c-16.2,5.3-33.7,5.3-50,0
		l-13.7-4.4c-7.1-2.3-14.8-2.3-21.9,0l-13.6,4.4c-16.2,5.3-33.7,5.3-50,0l-13.6-4.4c-7.1-2.3-14.8-2.3-21.9,0l-13.6,4.4
		c-16.2,5.3-33.7,5.3-50,0l-13.6-4.4c-7.1-2.3-14.8-2.3-21.9,0l-18,5.8c-6.5,2.1-13.2,3.2-20.1,3.2h-0.2c-6.8,0-13.2-3.2-17.1-8.7
		c-4.1-5.6-5.3-12.8-3.2-19.3l1-3c2.7-8.6,10.5-14.5,19.5-14.8c2-0.1,4.1-0.4,6-1l18-5.8c16.2-5.3,33.7-5.3,50,0l13.6,4.4
		c7.1,2.3,14.8,2.3,21.9,0l13.6-4.4c16.3-5.3,33.7-5.3,50,0L245,308c7.1,2.3,14.8,2.3,21.9,0l13.6-4.4c16.2-5.2,33.7-5.2,50,0
		l13.6,4.4c7.1,2.3,14.8,2.3,21.9,0l13.6-4.4c16.2-5.2,33.7-5.2,50,0l18.1,5.8c1.9,0.6,4,1,6,1c9,0.3,16.8,6.2,19.5,14.8l1,3.2
		c2.1,6.5,0.9,13.7-3.1,19.2c-3.9,5.4-10.1,8.6-16.7,8.6L454.2,356.3z M404.6,331.5c5.2,0,10.3,0.8,15.2,2.4l18.1,5.8
		c5.3,1.7,10.7,2.6,16.3,2.6h0.2c2.2,0,4.2-1.1,5.4-2.8c1.4-1.9,1.8-4.4,1.1-6.7l-1-3.2c-0.9-2.9-3.5-5-6.5-5.1
		c-3.4-0.1-6.7-0.7-10-1.7l-18.1-5.8c-13.5-4.3-27.9-4.3-41.4,0l-13.6,4.4c-9.9,3.2-20.6,3.2-30.5,0l-13.6-4.4
		c-13.5-4.3-28-4.3-41.4,0l-13.6,4.4c-9.9,3.2-20.6,3.2-30.5,0l-13.6-4.4c-13.5-4.4-27.9-4.4-41.4,0l-13.6,4.4
		c-9.9,3.2-20.6,3.2-30.5,0l-13.6-4.4c-13.5-4.4-27.9-4.4-41.4,0l-18,5.8c-3.2,1-6.6,1.6-10,1.7c-3,0.2-5.6,2.2-6.5,5.1l-1,3
		c-0.7,2.3-0.3,4.8,1.1,6.8c1.4,1.9,3.5,3,5.9,3h0.1c5.4,0,10.8-0.9,15.9-2.6l18-5.8c9.9-3.2,20.6-3.2,30.5,0l13.6,4.4
		c13.5,4.3,27.9,4.3,41.4,0l13.6-4.4c9.9-3.2,20.6-3.2,30.5,0l13.6,4.4c13.5,4.4,28,4.4,41.4,0l13.6-4.4c9.9-3.2,20.6-3.2,30.5,0
		l13.7,4.4c13.5,4.4,27.9,4.4,41.4,0l13.6-4.4C394.3,332.3,399.5,331.5,404.6,331.5L404.6,331.5z"/>
	<path class="st0" d="M256,428.2c-7,0-13.9-1.1-20.6-3.2l-18-5.8c-7.1-2.3-14.8-2.3-21.9,0l-13.6,4.4c-16.2,5.3-33.7,5.3-50,0
		l-13.6-4.4c-7.1-2.3-14.8-2.3-21.9,0l-13.7,4.4c-16.2,5.3-33.7,5.3-50,0l-17.9-5.8c-11.3-3.6-17.5-15.7-13.9-27l0.9-2.8
		c3.6-11.3,15.7-17.5,27-13.9l17.9,5.7c7.1,2.3,14.8,2.3,21.9,0l13.6-4.4c16.2-5.2,33.7-5.2,50,0l13.6,4.4c7.1,2.3,14.8,2.3,21.9,0
		l13.6-4.4c16.3-5.3,33.7-5.3,50,0l13.6,4.4c7.1,2.3,14.8,2.3,21.9,0l13.6-4.4c16.2-5.2,33.7-5.2,49.9,0l13.6,4.4
		c7.1,2.3,14.8,2.3,21.9,0l13.6-4.4c16.2-5.2,33.7-5.2,49.9,0l13.7,4.4c7.1,2.3,14.8,2.3,21.9,0l17.9-5.7c11.3-3.6,23.3,2.6,27,13.9
		l0.9,2.8c3.6,11.3-2.6,23.3-13.9,27l-22.3,7.2c-13.4,4.3-27.7,4.3-41.1,0l-18.1-5.8c-7.1-2.3-14.8-2.3-21.9,0l-13.7,4.4
		c-16.2,5.3-33.7,5.3-49.9,0l-13.6-4.4c-7.1-2.3-14.8-2.3-21.9,0l-18.1,5.8C269.9,427.1,262.9,428.2,256,428.2z M404.7,403.5
		c5.2,0,10.3,0.8,15.2,2.4l18.1,5.8c10.6,3.4,22,3.4,32.6,0l22.3-7.2c3.9-1.3,6.1-5.4,4.8-9.4l-0.9-2.8c-1.3-3.9-5.4-6.1-9.4-4.8
		l-17.9,5.7c-9.9,3.2-20.6,3.2-30.5,0l-13.7-4.4c-13.4-4.3-27.9-4.3-41.4,0l-13.6,4.4c-9.9,3.2-20.6,3.2-30.5,0l-13.6-4.4
		c-13.5-4.3-27.9-4.3-41.4,0l-13.6,4.4c-9.9,3.2-20.6,3.2-30.5,0l-13.6-4.4c-13.5-4.4-28-4.4-41.4,0l-13.6,4.4
		c-9.9,3.2-20.6,3.2-30.5,0l-13.6-4.4c-13.5-4.4-27.9-4.4-41.4,0L73,393.3c-9.9,3.2-20.6,3.2-30.5,0l-17.9-5.7
		c-3.9-1.2-8.1,0.9-9.4,4.8l-0.9,2.8c-1.3,3.9,0.9,8.1,4.8,9.4l17.9,5.7c13.5,4.3,27.9,4.3,41.4,0l13.6-4.4c9.9-3.2,20.6-3.2,30.5,0
		l13.6,4.4c13.5,4.4,28,4.4,41.4,0l13.6-4.4c9.9-3.2,20.6-3.2,30.5,0l18,5.8c10.6,3.4,22,3.4,32.6,0l18.1-5.8
		c9.9-3.2,20.6-3.2,30.5,0l13.7,4.4c13.4,4.3,27.9,4.3,41.4,0l13.7-4.4C394.3,404.3,399.5,403.5,404.7,403.5z"/>
</g>
</svg>
