<svg xmlns="http://www.w3.org/2000/svg" viewBox="0 0 36.89 31"><defs><style>.cls-1{fill:#68f3fb;}.cls-2{fill:#0863b4;}.cls-3{fill:#69cafb;}.cls-4{fill:#29bbf1;}.cls-5{fill:#0b8eed;}.cls-6{fill:#02237d;}.cls-7{fill:#022e90;}.cls-8{fill:#ffce29;}.cls-9{fill:#ff9b43;}.cls-10{fill:#f78851;}.cls-11{fill:#e55f06;}.cls-12{fill:#fe6c05;}.cls-13{fill:#ff8629;}.cls-14{fill:#ffa31e;}.cls-15{fill:#fa960a;}.cls-16{fill:#91f0ff;}.cls-17{fill:#0ba5f4;}.cls-18{fill:#84cde0;}.cls-19{fill:#6bb6ef;}.cls-20{fill:#2145a2;}.cls-21{fill:#4170ce;}.cls-22{fill:#5380c9;}.cls-23{fill:#4165a3;}.cls-24{fill:#175ab2;}.cls-25{fill:#0951b2;}.cls-26{fill:#6191d6;}.cls-27{fill:#6076df;}.cls-28{fill:#85e8fb;}.cls-29{fill:#7ce1f2;}.cls-30{fill:#4bd4f7;}.cls-31{fill:#70e1fd;}.cls-32{fill:#54a9ef;}.cls-33{fill:#42a3e6;}.cls-34{fill:#1f73ca;}.cls-35{fill:#0da4f4;}.cls-36{fill:#0b68d4;}.cls-37{fill:#042d9f;}.cls-38{fill:#032f87;}.cls-39{fill:#03408d;}.cls-40{fill:#0876dd;}.cls-41{fill:#0539b3;}</style></defs><title>rainnight-only</title><g id="레이어_2" data-name="레이어 2"><g id="레이어_1-2" data-name="레이어 1"><polygon class="cls-1" points="15.07 26.61 14.16 26.36 14.13 26.43 13.4 28.03 15.07 28.4 15.07 26.61"/><polygon class="cls-2" points="15.07 31 15.07 30.25 14.13 30.71 15.07 31"/><polygon class="cls-3" points="15.07 24.9 14.16 26.36 15.07 26.61 15.07 24.9"/><polygon class="cls-2" points="13.4 29.54 13.4 29.55 14.13 30.71 14.13 30.71 15.07 30.25 15.07 29.25 13.4 29.54"/><polygon class="cls-4" points="15.07 28.4 13.4 28.03 13.4 28.05 13.4 29.54 15.07 29.25 15.07 28.4"/><polygon class="cls-5" points="15.07 26.61 15.97 26.36 16 26.43 16.73 28.03 15.07 28.4 15.07 26.61"/><polygon class="cls-6" points="15.07 31 15.07 30.25 16 30.71 15.07 31"/><polygon class="cls-4" points="15.07 24.9 15.97 26.36 15.07 26.61 15.07 24.9"/><polygon class="cls-7" points="16.73 29.54 16.73 29.55 16 30.71 16 30.71 15.07 30.25 15.07 29.25 16.73 29.54"/><polygon class="cls-2" points="15.07 28.4 16.73 28.03 16.73 28.05 16.73 29.54 15.07 29.25 15.07 28.4"/><polygon class="cls-1" points="21.08 26.61 20.18 26.36 20.15 26.43 19.42 28.03 21.08 28.4 21.08 26.61"/><polygon class="cls-2" points="21.08 31 21.08 30.25 20.15 30.71 21.08 31"/><polygon class="cls-3" points="21.08 24.9 20.18 26.36 21.08 26.61 21.08 24.9"/><polygon class="cls-2" points="19.41 29.54 19.41 29.55 20.15 30.71 20.15 30.71 21.08 30.25 21.08 29.25 19.41 29.54"/><polygon class="cls-4" points="21.08 28.4 19.42 28.03 19.41 28.05 19.41 29.54 21.08 29.25 21.08 28.4"/><polygon class="cls-5" points="21.08 26.61 21.99 26.36 22.02 26.43 22.74 28.03 21.08 28.4 21.08 26.61"/><polygon class="cls-6" points="21.08 31 21.08 30.25 22.01 30.71 21.08 31"/><polygon class="cls-4" points="21.08 24.9 21.99 26.36 21.08 26.61 21.08 24.9"/><polygon class="cls-7" points="22.75 29.54 22.75 29.55 22.02 30.71 22.01 30.71 21.08 30.25 21.08 29.25 22.75 29.54"/><polygon class="cls-2" points="21.08 28.4 22.74 28.03 22.75 28.05 22.75 29.54 21.08 29.25 21.08 28.4"/><polygon class="cls-1" points="27.1 26.61 26.19 26.36 26.16 26.43 25.44 28.03 27.1 28.4 27.1 26.61"/><polygon class="cls-2" points="27.1 31 27.1 30.25 26.17 30.71 27.1 31"/><polygon class="cls-3" points="27.1 24.9 26.19 26.36 27.1 26.61 27.1 24.9"/><polygon class="cls-2" points="25.43 29.54 25.43 29.55 26.16 30.71 26.17 30.71 27.1 30.25 27.1 29.25 25.43 29.54"/><polygon class="cls-4" points="27.1 28.4 25.44 28.03 25.43 28.05 25.43 29.54 27.1 29.25 27.1 28.4"/><polygon class="cls-5" points="27.1 26.61 28.01 26.36 28.04 26.43 28.76 28.03 27.1 28.4 27.1 26.61"/><polygon class="cls-6" points="27.1 31 27.1 30.25 28.03 30.71 27.1 31"/><polygon class="cls-4" points="27.1 24.9 28.01 26.36 27.1 26.61 27.1 24.9"/><polygon class="cls-7" points="28.77 29.54 28.77 29.55 28.04 30.71 28.03 30.71 27.1 30.25 27.1 29.25 28.77 29.54"/><polygon class="cls-2" points="27.1 28.4 28.76 28.03 28.77 28.05 28.77 29.54 27.1 29.25 27.1 28.4"/><polygon class="cls-8" points="7.52 0 11.08 1.5 8.54 2.11 7.52 0"/><polygon class="cls-9" points="13.4 3.55 11.08 1.5 8.54 2.11 13.4 3.55"/><polygon class="cls-8" points="13.4 3.55 14.08 6.09 8.54 2.11 13.4 3.55"/><polygon class="cls-9" points="9.48 4.23 14.08 6.09 8.54 2.11 9.48 4.23"/><polygon class="cls-10" points="9.48 4.23 14.08 6.09 9.05 6.69 9.48 4.23"/><polygon class="cls-9" points="14.34 9.36 14.08 6.09 9.05 6.69 14.34 9.36"/><polygon class="cls-11" points="14.34 9.36 13.24 11.68 9.05 6.69 14.34 9.36"/><polygon class="cls-12" points="8.5 8.91 13.24 11.68 9.05 6.69 8.5 8.91"/><polygon class="cls-13" points="8.5 8.91 13.24 11.68 11.77 13.75 8.5 8.91"/><polygon class="cls-14" points="8.5 8.91 9.66 15.17 11.77 13.75 8.5 8.91"/><polygon class="cls-15" points="8.5 8.91 9.66 15.17 6.71 10.79 8.5 8.91"/><polygon class="cls-10" points="8.05 15.72 9.66 15.17 6.71 10.79 8.05 15.72"/><polygon class="cls-13" points="8.05 15.72 5.14 11.94 6.71 10.79 8.05 15.72"/><polygon class="cls-12" points="8.05 15.72 5.14 11.94 6.17 15.92 8.05 15.72"/><polygon class="cls-11" points="3.71 12.8 5.14 11.94 6.17 15.92 3.71 12.8"/><polygon class="cls-12" points="3.71 12.8 4.51 15.72 6.17 15.92 3.71 12.8"/><polygon class="cls-9" points="3.71 12.8 4.51 15.72 2.4 12.87 3.71 12.8"/><polygon class="cls-11" points="2.52 14.98 4.51 15.72 2.4 12.87 2.52 14.98"/><polygon class="cls-11" points="2.52 14.98 1.13 14.17 2.4 12.87 2.52 14.98"/><polygon class="cls-12" points="0 12.87 1.13 14.17 2.4 12.87 0 12.87"/><polygon class="cls-16" points="10.52 10.11 11.33 8.5 13.04 7.66 21.03 13.01 10.52 10.11"/><polygon class="cls-17" points="10.52 10.11 16.46 18.09 21.03 13.01 10.52 10.11"/><polygon class="cls-4" points="10.52 10.11 16.46 18.09 6.21 16.81 10.52 10.11"/><polygon class="cls-1" points="10.52 10.11 6.69 12.7 6.21 16.81 10.52 10.11"/><polygon class="cls-18" points="5.02 15.55 6.69 12.7 6.21 16.81 5.02 15.55"/><polygon class="cls-19" points="5.02 15.55 5.02 18.96 6.21 16.81 5.02 15.55"/><polygon class="cls-20" points="6.57 20.47 16.46 18.09 6.21 16.81 6.57 20.47"/><polygon class="cls-21" points="6.57 20.47 16.46 18.09 6.21 16.81 6.57 20.47"/><polygon class="cls-22" points="6.57 20.47 16.46 18.09 7.89 22.85 6.57 20.47"/><polygon class="cls-23" points="10.88 23.62 16.46 18.09 7.89 22.85 10.88 23.62"/><polygon class="cls-24" points="10.88 23.62 16.46 18.09 16.46 23.62 10.88 23.62"/><polygon class="cls-25" points="21.28 23.62 16.46 18.09 16.46 23.62 21.28 23.62"/><polygon class="cls-26" points="6.57 20.47 5.02 18.96 6.21 16.81 6.57 20.47"/><polygon class="cls-27" points="6.57 20.47 5.02 18.96 7.89 22.85 6.57 20.47"/><polygon class="cls-28" points="16.74 7.66 13.04 7.66 21.03 13.01 16.74 7.66"/><polygon class="cls-29" points="16.74 7.66 19.49 5.15 21.03 13.01 16.74 7.66"/><polygon class="cls-30" points="26.71 9.87 19.49 5.15 21.03 13.01 26.71 9.87"/><polygon class="cls-31" points="26.71 9.87 19.49 5.15 23.44 3.77 26.71 9.87"/><polygon class="cls-3" points="26.71 9.87 26.71 4.31 23.44 3.77 26.71 9.87"/><polygon class="cls-32" points="26.71 9.87 26.71 4.31 29.47 6.05 26.71 9.87"/><polygon class="cls-33" points="26.71 9.87 31.51 8.62 29.47 6.05 26.71 9.87"/><polygon class="cls-34" points="26.71 9.87 31.51 8.62 32.4 10.83 26.71 9.87"/><polygon class="cls-35" points="26.71 9.87 26.71 15.53 21.03 13.01 26.71 9.87"/><polygon class="cls-5" points="26.71 9.87 26.71 15.53 32.4 10.83 26.71 9.87"/><polygon class="cls-36" points="34.86 12.15 26.71 15.53 32.4 10.83 34.86 12.15"/><polygon class="cls-2" points="34.86 12.15 26.71 15.53 36.65 14.89 34.86 12.15"/><polygon class="cls-37" points="36.89 18.09 26.71 15.53 36.65 14.89 36.89 18.09"/><polygon class="cls-38" points="36.89 18.09 26.71 15.53 35.99 20.75 36.89 18.09"/><polygon class="cls-6" points="33.6 22.85 26.71 15.53 35.99 20.75 33.6 22.85"/><polygon class="cls-38" points="33.6 22.85 26.71 15.53 30.19 23.62 33.6 22.85"/><polygon class="cls-39" points="25.95 23.62 26.71 15.53 30.19 23.62 25.95 23.62"/><polygon class="cls-7" points="25.95 23.62 26.71 15.53 21.28 23.62 25.95 23.62"/><polygon class="cls-40" points="16.46 18.09 26.71 15.53 21.03 13.01 16.46 18.09"/><polygon class="cls-41" points="16.46 18.09 26.71 15.53 21.28 23.62 16.46 18.09"/></g></g></svg>