<?xml version="1.0" encoding="utf-8"?>
<!-- Generator: Adobe Illustrator 24.0.2, SVG Export Plug-In . SVG Version: 6.00 Build 0)  -->
<svg version="1.1" id="레이어_1" xmlns="http://www.w3.org/2000/svg" xmlns:xlink="http://www.w3.org/1999/xlink" x="0px"
	 y="0px" viewBox="0 0 34.5 47.6" style="enable-background:new 0 0 34.5 47.6;" xml:space="preserve">
<style type="text/css">
	.st0{fill:#91F0FF;}
	.st1{fill:#0BA5F4;}
	.st2{fill:#29BBF1;}
	.st3{fill:#68F3FB;}
	.st4{fill:#84CDE0;}
	.st5{fill:#6BB6EF;}
	.st6{fill:#2145A2;}
	.st7{fill:#4170CE;}
	.st8{fill:#5380C9;}
	.st9{fill:#4165A3;}
	.st10{fill:#175AB2;}
	.st11{fill:#0951B2;}
	.st12{fill:#6191D6;}
	.st13{fill:#6076DF;}
	.st14{fill:#85E8FB;}
	.st15{fill:#7CE1F2;}
	.st16{fill:#4BD4F7;}
	.st17{fill:#70E1FD;}
	.st18{fill:#69CAFB;}
	.st19{fill:#54A9EF;}
	.st20{fill:#42A3E6;}
	.st21{fill:#1F73CA;}
	.st22{fill:#0DA4F4;}
	.st23{fill:#0B8EED;}
	.st24{fill:#0B68D4;}
	.st25{fill:#0863B4;}
	.st26{fill:#042D9F;}
	.st27{fill:#032F87;}
	.st28{fill:#02237D;}
	.st29{fill:#03408D;}
	.st30{fill:#022E90;}
	.st31{fill:#0876DD;}
	.st32{fill:#0539B3;}
	.st33{fill:#4D4D4D;}
</style>
<g id="Layer_1">
	<polygon class="st0" points="69.9,15.8 70.8,14.1 72.6,13.1 81.3,18.9 	"/>
	<polygon class="st1" points="69.9,15.8 76.3,24.4 81.3,18.9 	"/>
	<polygon class="st2" points="69.9,15.8 76.3,24.4 65.2,23.1 	"/>
	<polygon class="st3" points="69.9,15.8 65.7,18.6 65.2,23.1 	"/>
	<polygon class="st4" points="63.9,21.7 65.7,18.6 65.2,23.1 	"/>
	<polygon class="st5" points="63.9,21.7 63.9,25.4 65.2,23.1 	"/>
	<polygon class="st6" points="65.6,27 76.3,24.4 65.2,23.1 	"/>
	<polygon class="st7" points="65.6,27 76.3,24.4 65.2,23.1 	"/>
	<polygon class="st8" points="65.6,27 76.3,24.4 67,29.6 	"/>
	<polygon class="st9" points="70.3,30.4 76.3,24.4 67,29.6 	"/>
	<polygon class="st10" points="70.3,30.4 76.3,24.4 76.3,30.4 	"/>
	<polygon class="st11" points="81.6,30.4 76.3,24.4 76.3,30.4 	"/>
	<polygon class="st12" points="65.6,27 63.9,25.4 65.2,23.1 	"/>
	<polygon class="st13" points="65.6,27 63.9,25.4 67,29.6 	"/>
	<polygon class="st14" points="76.6,13.1 72.6,13.1 81.3,18.9 	"/>
	<polygon class="st15" points="76.6,13.1 79.6,10.4 81.3,18.9 	"/>
	<polygon class="st16" points="87.4,15.5 79.6,10.4 81.3,18.9 	"/>
	<polygon class="st17" points="87.4,15.5 79.6,10.4 83.9,8.9 	"/>
	<polygon class="st18" points="87.4,15.5 87.4,9.5 83.9,8.9 	"/>
	<polygon class="st19" points="87.4,15.5 87.4,9.5 90.4,11.4 	"/>
	<polygon class="st20" points="87.4,15.5 92.6,14.2 90.4,11.4 	"/>
	<polygon class="st21" points="87.4,15.5 92.6,14.2 93.6,16.6 	"/>
	<polygon class="st22" points="87.4,15.5 87.4,21.7 81.3,18.9 	"/>
	<polygon class="st23" points="87.4,15.5 87.4,21.7 93.6,16.6 	"/>
	<polygon class="st24" points="96.3,18 87.4,21.7 93.6,16.6 	"/>
	<polygon class="st25" points="96.3,18 87.4,21.7 98.2,21 	"/>
	<polygon class="st26" points="98.5,24.4 87.4,21.7 98.2,21 	"/>
	<polygon class="st27" points="98.5,24.4 87.4,21.7 97.5,27.3 	"/>
	<polygon class="st28" points="94.9,29.6 87.4,21.7 97.5,27.3 	"/>
	<polygon class="st27" points="94.9,29.6 87.4,21.7 91.2,30.4 	"/>
	<polygon class="st29" points="86.6,30.4 87.4,21.7 91.2,30.4 	"/>
	<polygon class="st30" points="86.6,30.4 87.4,21.7 81.6,30.4 	"/>
	<polygon class="st31" points="76.3,24.4 87.4,21.7 81.3,18.9 	"/>
	<polygon class="st32" points="76.3,24.4 87.4,21.7 81.6,30.4 	"/>
	<polygon class="st3" points="81.3,35 79.2,34.5 79.2,34.6 77.5,38.2 81.3,39.1 	"/>
	<polygon class="st25" points="81.3,44.9 81.3,43.3 79.2,44.3 	"/>
	<polygon class="st18" points="81.3,31.1 79.2,34.5 81.3,35 	"/>
	<polygon class="st25" points="77.5,41.7 77.5,41.7 79.2,44.3 79.2,44.3 81.3,43.3 81.3,41 	"/>
	<polygon class="st2" points="81.3,39.1 77.5,38.2 77.5,38.3 77.5,41.7 81.3,41 	"/>
	<polygon class="st23" points="81.3,35 83.3,34.5 83.4,34.6 85,38.2 81.3,39.1 	"/>
	<polygon class="st28" points="81.3,44.9 81.3,43.3 83.4,44.3 	"/>
	<polygon class="st2" points="81.3,31.1 83.3,34.5 81.3,35 	"/>
	<polygon class="st30" points="85.1,41.7 85.1,41.7 83.4,44.3 83.4,44.3 81.3,43.3 81.3,41 	"/>
	<polygon class="st25" points="81.3,39.1 85,38.2 85.1,38.3 85.1,41.7 81.3,41 	"/>
	<path class="st33" d="M74.8,56.4v-5h2.1c0.8,0,1.5,0.7,1.5,1.6c0,0.7-0.4,1.3-1.1,1.5l1.2,1.9h-0.6l-1.2-1.8h-1.4v1.8H74.8z
		 M75.3,54.2h1.6c0.6,0,1-0.4,1-1c0-0.1,0-0.1,0-0.1c0-0.6-0.4-1-1-1.1h-1.6L75.3,54.2z"/>
	<path class="st33" d="M79,55.4c0-0.7,0.6-1.1,1.5-1.1c0.4,0,0.7,0.1,1.1,0.2v-0.3c0-0.6-0.4-1-0.9-1.1c0,0,0,0-0.1,0
		c-0.4,0-0.8,0.2-1.2,0.4l-0.2-0.3c0.4-0.3,0.9-0.5,1.4-0.5c0.7-0.1,1.4,0.5,1.5,1.2c0,0.1,0,0.1,0,0.2v1.7c0,0.1,0.1,0.2,0.2,0.2
		v0.4h-0.2c-0.2,0-0.4-0.1-0.4-0.3c0,0,0,0,0,0v-0.3c-0.3,0.4-0.9,0.7-1.4,0.7C79.6,56.6,79.1,56.1,79,55.4C79,55.4,79,55.4,79,55.4
		z M81.5,55.6c0.1-0.1,0.1-0.2,0.1-0.3v-0.6c-0.3-0.1-0.7-0.2-1-0.2c-0.7,0-1.2,0.3-1.2,0.8c0,0.5,0.4,0.8,0.9,0.8c0,0,0,0,0,0
		C80.8,56.1,81.2,56,81.5,55.6z"/>
	<path class="st33" d="M83.1,52v-0.7h0.5V52H83.1z M83.1,56.4v-3.7h0.5v3.7H83.1z"/>
	<path class="st33" d="M87.7,56.4h-0.5v-2c0-0.9-0.3-1.2-0.8-1.2c-0.6,0-1.1,0.4-1.3,1v2.2h-0.5v-3.7h0.4v0.8
		c0.3-0.6,0.9-0.9,1.6-0.9c0.8,0,1.1,0.6,1.1,1.6V56.4z"/>
</g>
</svg>
