<svg xmlns="http://www.w3.org/2000/svg" viewBox="0 0 31.87 33.5"><defs><style>.cls-1{fill:#91f0ff;}.cls-2{fill:#0ba5f4;}.cls-3{fill:#29bbf1;}.cls-4{fill:#68f3fb;}.cls-5{fill:#84cde0;}.cls-6{fill:#6bb6ef;}.cls-7{fill:#2145a2;}.cls-8{fill:#4170ce;}.cls-9{fill:#5380c9;}.cls-10{fill:#4165a3;}.cls-11{fill:#175ab2;}.cls-12{fill:#0951b2;}.cls-13{fill:#6191d6;}.cls-14{fill:#6076df;}.cls-15{fill:#85e8fb;}.cls-16{fill:#7ce1f2;}.cls-17{fill:#4bd4f7;}.cls-18{fill:#70e1fd;}.cls-19{fill:#69cafb;}.cls-20{fill:#54a9ef;}.cls-21{fill:#42a3e6;}.cls-22{fill:#1f73ca;}.cls-23{fill:#0da4f4;}.cls-24{fill:#0b8eed;}.cls-25{fill:#0b68d4;}.cls-26{fill:#0863b4;}.cls-27{fill:#042d9f;}.cls-28{fill:#032f87;}.cls-29{fill:#02237d;}.cls-30{fill:#03408d;}.cls-31{fill:#022e90;}.cls-32{fill:#0876dd;}.cls-33{fill:#0539b3;}</style></defs><title>자산 1</title><g id="레이어_2" data-name="레이어 2"><g id="레이어_1-2" data-name="레이어 1"><polygon class="cls-1" points="5.5 6.34 6.31 4.72 8.02 3.88 16.01 9.23 5.5 6.34"/><polygon class="cls-2" points="5.5 6.34 11.44 14.32 16.01 9.23 5.5 6.34"/><polygon class="cls-3" points="5.5 6.34 11.44 14.32 1.19 13.03 5.5 6.34"/><polygon class="cls-4" points="5.5 6.34 1.67 8.93 1.19 13.03 5.5 6.34"/><polygon class="cls-5" points="0 11.77 1.67 8.93 1.19 13.03 0 11.77"/><polygon class="cls-6" points="0 11.77 0 15.19 1.19 13.03 0 11.77"/><polygon class="cls-7" points="1.55 16.7 11.44 14.32 1.19 13.03 1.55 16.7"/><polygon class="cls-8" points="1.55 16.7 11.44 14.32 1.19 13.03 1.55 16.7"/><polygon class="cls-9" points="1.55 16.7 11.44 14.32 2.87 19.07 1.55 16.7"/><polygon class="cls-10" points="5.86 19.85 11.44 14.32 2.87 19.07 5.86 19.85"/><polygon class="cls-11" points="5.86 19.85 11.44 14.32 11.44 19.85 5.86 19.85"/><polygon class="cls-12" points="16.26 19.85 11.44 14.32 11.44 19.85 16.26 19.85"/><polygon class="cls-13" points="1.55 16.7 0 15.19 1.19 13.03 1.55 16.7"/><polygon class="cls-14" points="1.55 16.7 0 15.19 2.87 19.07 1.55 16.7"/><polygon class="cls-15" points="11.72 3.88 8.02 3.88 16.01 9.23 11.72 3.88"/><polygon class="cls-16" points="11.72 3.88 14.47 1.38 16.01 9.23 11.72 3.88"/><polygon class="cls-17" points="21.69 6.1 14.47 1.38 16.01 9.23 21.69 6.1"/><polygon class="cls-18" points="21.69 6.1 14.47 1.38 18.41 0 21.69 6.1"/><polygon class="cls-19" points="21.69 6.1 21.69 0.54 18.41 0 21.69 6.1"/><polygon class="cls-20" points="21.69 6.1 21.69 0.54 24.45 2.27 21.69 6.1"/><polygon class="cls-21" points="21.69 6.1 26.49 4.84 24.45 2.27 21.69 6.1"/><polygon class="cls-22" points="21.69 6.1 26.49 4.84 27.38 7.06 21.69 6.1"/><polygon class="cls-23" points="21.69 6.1 21.69 11.75 16.01 9.23 21.69 6.1"/><polygon class="cls-24" points="21.69 6.1 21.69 11.75 27.38 7.06 21.69 6.1"/><polygon class="cls-25" points="29.83 8.37 21.69 11.75 27.38 7.06 29.83 8.37"/><polygon class="cls-26" points="29.83 8.37 21.69 11.75 31.63 11.12 29.83 8.37"/><polygon class="cls-27" points="31.87 14.32 21.69 11.75 31.63 11.12 31.87 14.32"/><polygon class="cls-28" points="31.87 14.32 21.69 11.75 30.97 16.98 31.87 14.32"/><polygon class="cls-29" points="28.58 19.07 21.69 11.75 30.97 16.98 28.58 19.07"/><polygon class="cls-28" points="28.58 19.07 21.69 11.75 25.17 19.85 28.58 19.07"/><polygon class="cls-30" points="20.93 19.85 21.69 11.75 25.17 19.85 20.93 19.85"/><polygon class="cls-31" points="20.93 19.85 21.69 11.75 16.26 19.85 20.93 19.85"/><polygon class="cls-32" points="11.44 14.32 21.69 11.75 16.01 9.23 11.44 14.32"/><polygon class="cls-33" points="11.44 14.32 21.69 11.75 16.26 19.85 11.44 14.32"/><polygon class="cls-21" points="18.27 27.38 17.53 26.7 17.27 26.85 17.42 27.87 18.27 27.38"/><polygon class="cls-3" points="19.89 23.96 18.97 23.71 18.51 25.43 19.63 24.95 19.89 23.96"/><polygon class="cls-1" points="21.32 27.78 21.57 26.86 20.88 26.67 20.54 27.57 21.32 27.78"/><polygon class="cls-17" points="18.76 27.1 19.17 27.21 19.77 25.41 19.46 25.59 19.63 24.95 18.51 25.43 18.28 26.27 17.53 26.7 18.27 27.38 18.76 27.1"/><polygon class="cls-3" points="20.54 27.57 20.88 26.67 19.94 26.42 20.89 25.87 20.41 25.04 19.77 25.41 19.17 27.21 20.54 27.57"/><polygon class="cls-23" points="17.42 27.87 17.27 26.85 15.87 27.66 16.66 28.31 17.42 27.87"/><path class="cls-24" d="M11,28.56c.06.35.12.75.16,1l.57.16,1.54-.58Z"/><path class="cls-28" d="M10.71,28.48l-.25.93.69.18a6.46,6.46,0,0,0-.16-1Z"/><path class="cls-23" d="M11.72,29.75l.37.09-.26.16,1.86.19.05-.19.68-.4c0-.32.08-.75.12-1.17l-1.28.74Z"/><path class="cls-11" d="M16.66,28.31l-.79-.65-1.33.77a11.48,11.48,0,0,1-.12,1.17Z"/><polygon class="cls-3" points="12.13 32.31 13.05 32.55 12.57 30.68 12.13 32.31"/><polygon class="cls-32" points="11.07 30.43 11.54 31.27 12.57 30.68 13.59 30.57 13.69 30.19 11.82 30 11.07 30.43"/><polygon class="cls-15" points="13.05 32.55 13.06 32.55 13.59 30.57 12.57 30.68 13.05 32.55"/><polygon class="cls-21" points="15.58 30.38 16.54 30.08 16.54 29.79 15.58 29.4 15.58 30.38"/><polygon class="cls-3" points="17.73 33.5 18.41 32.82 17.15 31.57 17.01 32.78 17.73 33.5"/><polygon class="cls-1" points="13.71 32.82 14.39 33.5 14.89 33 14.28 32.26 13.71 32.82"/><polygon class="cls-17" points="15.58 30.95 15.28 31.25 16.54 32.67 16.54 32.31 17.01 32.78 17.15 31.57 16.54 30.95 16.54 30.08 15.58 30.38 15.58 30.95"/><polygon class="cls-3" points="14.28 32.26 14.89 33 15.58 32.31 15.58 33.41 16.54 33.41 16.54 32.67 15.28 31.25 14.28 32.26"/><polygon class="cls-23" points="15.58 29.4 16.54 29.79 16.54 28.17 15.58 28.52 15.58 29.4"/><path class="cls-24" d="M18.2,23.49l-1-.38-.41.42-.27,1.62Z"/><path class="cls-28" d="M18.41,23.28l-.68-.67-.51.5c.28.11.64.26,1,.38Z"/><path class="cls-23" d="M16.81,23.53l-.27.27v-.3L15.44,25l.14.14v.79l1,.69V25.15Z"/><path class="cls-11" d="M15.58,28.52l1-.35V26.63l-1-.69Z"/><polygon class="cls-3" points="14.39 22.61 13.72 23.28 15.58 23.8 14.39 22.61"/><polygon class="cls-32" points="16.54 22.62 15.58 22.62 15.58 23.8 15.16 24.73 15.44 25.02 16.54 23.5 16.54 22.62"/><polygon class="cls-15" points="13.72 23.28 13.71 23.28 15.16 24.73 15.58 23.8 13.72 23.28"/><polygon class="cls-21" points="17.79 29.66 18.01 28.68 17.75 28.53 16.94 29.17 17.79 29.66"/><polygon class="cls-3" points="21.57 29.35 21.32 28.43 19.6 28.89 20.58 29.62 21.57 29.35"/><polygon class="cls-1" points="18.97 32.5 19.9 32.25 19.71 31.57 18.76 31.72 18.97 32.5"/><polygon class="cls-17" points="18.29 29.94 18.39 30.35 20.26 29.97 19.94 29.79 20.58 29.62 19.6 28.89 18.76 29.11 18.01 28.68 17.79 29.66 18.29 29.94"/><polygon class="cls-3" points="18.76 31.72 19.71 31.57 19.46 30.62 20.41 31.17 20.89 30.34 20.26 29.97 18.39 30.35 18.76 31.72"/><polygon class="cls-23" points="16.94 29.17 17.75 28.53 16.35 27.72 16.18 28.73 16.94 29.17"/><path class="cls-24" d="M13.13,23.94l-.81.66.15.57,1.27,1Z"/><path class="cls-28" d="M13.06,23.66l-.93.25.19.69.81-.66Z"/><path class="cls-23" d="M12.47,25.17l.1.37-.26-.16.76,1.72.19-.06.68.4L15,27l-1.28-.74Z"/><path class="cls-11" d="M16.18,28.73l.17-1L15,27l-1.08.49Z"/><polygon class="cls-3" points="10.46 26.8 10.71 27.72 12.09 26.37 10.46 26.8"/><polygon class="cls-32" points="11.55 24.95 11.07 25.78 12.09 26.37 12.69 27.2 13.07 27.1 12.31 25.39 11.55 24.95"/><polygon class="cls-15" points="10.71 27.72 10.71 27.73 12.69 27.2 12.09 26.37 10.71 27.72"/><polygon class="cls-21" points="27.42 23.68 27.08 23.36 26.96 23.43 27.02 23.91 27.42 23.68"/><polygon class="cls-3" points="28.18 22.08 27.75 21.97 27.53 22.77 28.06 22.54 28.18 22.08"/><polygon class="cls-1" points="28.84 23.86 28.96 23.43 28.64 23.35 28.48 23.77 28.84 23.86"/><polygon class="cls-17" points="27.65 23.55 27.84 23.6 28.12 22.76 27.98 22.84 28.06 22.54 27.53 22.77 27.43 23.16 27.08 23.36 27.42 23.68 27.65 23.55"/><polygon class="cls-3" points="28.48 23.77 28.64 23.35 28.2 23.23 28.64 22.97 28.42 22.59 28.12 22.76 27.84 23.6 28.48 23.77"/><polygon class="cls-23" points="27.02 23.91 26.96 23.43 26.3 23.81 26.67 24.11 27.02 23.91"/><path class="cls-24" d="M24,24.23a4,4,0,0,1,.07.48l.27.07.72-.27Z"/><path class="cls-28" d="M23.9,24.19l-.12.43.32.09a4,4,0,0,0-.07-.48Z"/><path class="cls-23" d="M24.37,24.78h.17l-.12.07.87.09v-.09l.32-.19a2.24,2.24,0,0,1,.05-.55l-.59.35Z"/><path class="cls-11" d="M26.67,24.11l-.37-.3-.62.35a1.87,1.87,0,0,1-.05.55Z"/><polygon class="cls-3" points="24.56 25.97 24.99 26.09 24.76 25.21 24.56 25.97"/><polygon class="cls-32" points="24.06 25.1 24.29 25.49 24.76 25.21 25.24 25.17 25.29 24.98 24.42 24.89 24.06 25.1"/><polygon class="cls-15" points="24.99 26.09 24.99 26.09 25.24 25.17 24.76 25.21 24.99 26.09"/><polygon class="cls-21" points="26.17 25.07 26.61 24.93 26.61 24.8 26.17 24.62 26.17 25.07"/><polygon class="cls-3" points="27.17 26.53 27.49 26.21 26.9 25.63 26.84 26.19 27.17 26.53"/><polygon class="cls-1" points="25.3 26.21 25.61 26.53 25.85 26.3 25.56 25.95 25.3 26.21"/><polygon class="cls-17" points="26.17 25.34 26.03 25.48 26.61 26.14 26.61 25.97 26.84 26.19 26.9 25.63 26.61 25.34 26.61 24.93 26.17 25.07 26.17 25.34"/><polygon class="cls-3" points="25.56 25.95 25.85 26.3 26.17 25.97 26.17 26.49 26.61 26.49 26.61 26.14 26.03 25.48 25.56 25.95"/><polygon class="cls-23" points="26.17 24.62 26.61 24.8 26.61 24.04 26.17 24.21 26.17 24.62"/><path class="cls-24" d="M27.39,21.86l-.46-.17-.19.19-.12.76Z"/><path class="cls-28" d="M27.49,21.77l-.32-.32-.24.24.46.17Z"/><path class="cls-23" d="M26.74,21.88l-.12.13v-.14l-.52.7.07.07V23l.45.32v-.69Z"/><path class="cls-11" d="M26.17,24.21l.45-.17v-.71L26.17,23Z"/><polygon class="cls-3" points="25.61 21.45 25.3 21.77 26.17 22.01 25.61 21.45"/><polygon class="cls-32" points="26.61 21.46 26.17 21.46 26.17 22.01 25.97 22.44 26.1 22.57 26.61 21.87 26.61 21.46"/><polygon class="cls-15" points="25.3 21.77 25.3 21.77 25.97 22.44 26.17 22.01 25.3 21.77"/><polygon class="cls-21" points="27.2 24.74 27.3 24.28 27.18 24.21 26.8 24.51 27.2 24.74"/><polygon class="cls-3" points="28.96 24.6 28.84 24.16 28.04 24.38 28.5 24.72 28.96 24.6"/><polygon class="cls-1" points="27.75 26.06 28.18 25.95 28.09 25.63 27.65 25.7 27.75 26.06"/><polygon class="cls-17" points="27.43 24.87 27.48 25.06 28.35 24.89 28.2 24.8 28.5 24.72 28.04 24.38 27.65 24.48 27.3 24.28 27.2 24.74 27.43 24.87"/><polygon class="cls-3" points="27.65 25.7 28.09 25.63 27.98 25.19 28.42 25.44 28.64 25.06 28.35 24.89 27.48 25.06 27.65 25.7"/><polygon class="cls-23" points="26.8 24.51 27.18 24.21 26.53 23.84 26.45 24.31 26.8 24.51"/><path class="cls-24" d="M25,22.08l-.38.3.07.27.59.48Z"/><path class="cls-28" d="M25,21.94l-.43.12.09.32.38-.3Z"/><path class="cls-23" d="M24.72,22.65l.05.17-.13-.07.36.79h.09l.32.18.5-.22-.6-.35Z"/><path class="cls-11" d="M26.45,24.31l.08-.48-.62-.35-.5.22Z"/><polygon class="cls-3" points="23.78 23.41 23.9 23.84 24.54 23.2 23.78 23.41"/><polygon class="cls-32" points="24.29 22.54 24.07 22.93 24.54 23.2 24.82 23.59 25 23.54 24.64 22.75 24.29 22.54"/><polygon class="cls-15" points="23.9 23.84 23.9 23.84 24.82 23.59 24.54 23.2 23.9 23.84"/><polygon class="cls-21" points="5.97 24.7 5.63 24.39 5.51 24.45 5.58 24.93 5.97 24.7"/><polygon class="cls-3" points="6.73 23.11 6.3 22.99 6.08 23.79 6.61 23.57 6.73 23.11"/><polygon class="cls-1" points="7.39 24.89 7.51 24.46 7.19 24.37 7.03 24.79 7.39 24.89"/><polygon class="cls-17" points="6.2 24.57 6.39 24.62 6.67 23.78 6.53 23.87 6.61 23.57 6.08 23.79 5.98 24.18 5.63 24.39 5.97 24.7 6.2 24.57"/><polygon class="cls-3" points="7.03 24.79 7.19 24.37 6.75 24.25 7.19 24 6.97 23.61 6.67 23.78 6.39 24.62 7.03 24.79"/><polygon class="cls-23" points="5.58 24.93 5.51 24.45 4.86 24.83 5.22 25.14 5.58 24.93"/><path class="cls-24" d="M2.58,25.25a3.2,3.2,0,0,0,.08.48l.26.07.72-.27Z"/><path class="cls-28" d="M2.45,25.21l-.12.44.33.08a3.2,3.2,0,0,0-.08-.48Z"/><path class="cls-23" d="M2.92,25.8l.17.05L3,25.92l.87.09v-.09l.32-.18a2.2,2.2,0,0,1,0-.55l-.59.34Z"/><path class="cls-11" d="M5.22,25.14l-.36-.31-.63.36a1.91,1.91,0,0,1-.05.55Z"/><polygon class="cls-3" points="3.11 27 3.54 27.11 3.31 26.23 3.11 27"/><polygon class="cls-32" points="2.62 26.12 2.84 26.51 3.31 26.23 3.79 26.19 3.84 26.01 2.97 25.92 2.62 26.12"/><polygon class="cls-15" points="3.54 27.11 3.54 27.11 3.79 26.19 3.31 26.23 3.54 27.11"/><polygon class="cls-21" points="4.72 26.1 5.17 25.96 5.17 25.82 4.72 25.64 4.72 26.1"/><polygon class="cls-3" points="5.72 27.55 6.04 27.24 5.45 26.65 5.39 27.22 5.72 27.55"/><polygon class="cls-1" points="3.85 27.24 4.16 27.55 4.4 27.32 4.11 26.97 3.85 27.24"/><polygon class="cls-17" points="4.72 26.37 4.58 26.5 5.17 27.17 5.17 27 5.39 27.22 5.45 26.65 5.17 26.37 5.17 25.96 4.72 26.1 4.72 26.37"/><polygon class="cls-3" points="4.11 26.97 4.4 27.32 4.72 27 4.72 27.51 5.17 27.51 5.17 27.17 4.58 26.5 4.11 26.97"/><polygon class="cls-23" points="4.72 25.64 5.17 25.82 5.17 25.07 4.72 25.23 4.72 25.64"/><path class="cls-24" d="M5.94,22.89l-.45-.18-.2.2-.12.75Z"/><path class="cls-28" d="M6,22.79l-.32-.31-.23.23.45.18Z"/><path class="cls-23" d="M5.29,22.91,5.17,23v-.14l-.52.71.07.06V24l.45.32v-.69Z"/><path class="cls-11" d="M4.72,25.23l.45-.16v-.72L4.72,24Z"/><polygon class="cls-3" points="4.16 22.48 3.85 22.79 4.72 23.03 4.16 22.48"/><polygon class="cls-32" points="5.17 22.48 4.72 22.48 4.72 23.03 4.52 23.47 4.65 23.6 5.17 22.89 5.17 22.48"/><polygon class="cls-15" points="3.85 22.79 3.85 22.79 4.52 23.47 4.72 23.03 3.85 22.79"/><polygon class="cls-21" points="5.75 25.76 5.85 25.3 5.73 25.24 5.35 25.53 5.75 25.76"/><polygon class="cls-3" points="7.51 25.62 7.39 25.19 6.59 25.4 7.05 25.74 7.51 25.62"/><polygon class="cls-1" points="6.3 27.09 6.73 26.97 6.64 26.65 6.2 26.73 6.3 27.09"/><polygon class="cls-17" points="5.98 25.89 6.03 26.09 6.9 25.91 6.75 25.82 7.05 25.74 6.59 25.4 6.2 25.51 5.85 25.3 5.75 25.76 5.98 25.89"/><polygon class="cls-3" points="6.2 26.73 6.64 26.65 6.53 26.21 6.97 26.47 7.19 26.08 6.9 25.91 6.03 26.09 6.2 26.73"/><polygon class="cls-23" points="5.35 25.53 5.73 25.24 5.08 24.86 5 25.33 5.35 25.53"/><path class="cls-24" d="M3.58,23.1l-.38.31.07.26.59.49Z"/><path class="cls-28" d="M3.54,23l-.43.11.09.33.38-.31Z"/><path class="cls-23" d="M3.27,23.67v.17l-.13-.07.36.8h.09l.32.19.5-.23-.6-.34Z"/><path class="cls-11" d="M5,25.33l.08-.47-.62-.36-.5.23Z"/><polygon class="cls-3" points="2.33 24.43 2.45 24.86 3.09 24.23 2.33 24.43"/><polygon class="cls-32" points="2.84 23.57 2.62 23.95 3.09 24.23 3.37 24.62 3.55 24.57 3.19 23.77 2.84 23.57"/><polygon class="cls-15" points="2.45 24.86 2.45 24.86 3.37 24.62 3.09 24.23 2.45 24.86"/></g></g></svg>