<svg xmlns="http://www.w3.org/2000/svg" viewBox="0 0 35.95 35.66"><defs><style>.cls-1{fill:#ff750a;}.cls-2{fill:#fff51f;}.cls-3{fill:#fffe85;}.cls-4{fill:#ffe41f;}.cls-5{fill:#ff8629;}.cls-6{fill:#ffa31e;}.cls-7{fill:#ed6902;}.cls-8{fill:#ffce29;}.cls-9{fill:#ff9b43;}.cls-10{fill:#f78851;}.cls-11{fill:#fe6c05;}.cls-12{fill:#e55f06;}</style></defs><title>자산 1</title><g id="레이어_2" data-name="레이어 2"><g id="레이어_1-2" data-name="레이어 1"><polygon class="cls-1" points="17.92 19.94 13.86 30.91 17.92 30.91 17.92 19.94"/><polygon class="cls-2" points="17.92 5.37 13.86 5.37 17.92 16.33 17.92 5.37"/><polygon class="cls-3" points="17.92 16.33 13.86 5.37 13.77 5.37 7.13 10.19 17.92 17.68 17.92 16.33"/><polygon class="cls-4" points="17.92 17.68 7.13 10.19 7.05 10.24 4.49 18.14 17.92 18.14 17.92 17.68"/><polygon class="cls-5" points="17.92 18.59 7.04 26.01 7.05 26.03 13.77 30.91 13.86 30.91 17.92 19.94 17.92 18.59"/><polygon class="cls-6" points="17.92 18.14 4.49 18.14 7.04 26.01 17.92 18.59 17.92 18.14"/><polygon class="cls-7" points="17.92 19.94 21.97 30.91 17.92 30.91 17.92 19.94"/><polygon class="cls-8" points="17.92 5.37 21.98 5.37 17.92 16.33 17.92 5.37"/><polygon class="cls-9" points="17.92 16.33 21.98 5.37 22.06 5.37 28.7 10.19 17.92 17.68 17.92 16.33"/><polygon class="cls-10" points="17.92 17.68 28.7 10.19 28.78 10.24 31.35 18.14 17.92 18.14 17.92 17.68"/><polygon class="cls-11" points="17.92 18.59 28.79 26.01 28.78 26.03 22.06 30.91 21.97 30.91 17.92 19.94 17.92 18.59"/><polygon class="cls-12" points="17.92 18.14 31.35 18.14 28.79 26.01 17.92 18.59 17.92 18.14"/><polygon class="cls-9" points="17.92 0 17.92 0 17.92 4 21.98 4 17.92 0"/><polygon class="cls-8" points="13.85 4 17.92 4 17.92 0 13.85 4"/><polygon class="cls-9" points="8.04 2.93 8.04 2.93 10.21 6.28 13.63 4.06 8.04 2.93"/><polygon class="cls-8" points="6.8 8.49 10.21 6.28 8.04 2.93 6.8 8.49"/><polygon class="cls-9" points="1.35 10.76 1.35 10.76 5 12.39 6.65 8.67 1.35 10.76"/><polygon class="cls-8" points="3.34 16.1 5 12.39 1.35 10.76 3.34 16.1"/><polygon class="cls-9" points="0 20.98 0 20.98 3.95 20.35 3.31 16.33 0 20.98"/><polygon class="cls-8" points="4.58 24.37 3.95 20.35 0 20.98 4.58 24.37"/><polygon class="cls-9" points="4.44 30.27 4.44 30.27 7.41 27.6 4.68 24.58 4.44 30.27"/><polygon class="cls-8" points="10.13 30.62 7.41 27.6 4.44 30.27 10.13 30.62"/><polygon class="cls-9" points="13.22 35.66 13.22 35.66 14.25 31.8 10.33 30.75 13.22 35.66"/><polygon class="cls-8" points="18.18 32.85 14.25 31.8 13.22 35.66 18.18 32.85"/><polygon class="cls-9" points="23.52 35.39 23.52 35.39 22.29 31.59 18.42 32.84 23.52 35.39"/><polygon class="cls-8" points="26.15 30.33 22.29 31.59 23.52 35.39 26.15 30.33"/><polygon class="cls-9" points="32.01 29.55 32.01 29.55 28.9 27.04 26.35 30.2 32.01 29.55"/><polygon class="cls-8" points="31.46 23.88 28.9 27.04 32.01 29.55 31.46 23.88"/><polygon class="cls-9" points="35.95 20.03 35.95 20.03 31.98 19.62 31.55 23.66 35.95 20.03"/><polygon class="cls-8" points="32.4 15.57 31.98 19.62 35.95 20.03 32.4 15.57"/><polygon class="cls-9" points="34.08 9.9 34.08 9.9 30.52 11.72 32.36 15.34 34.08 9.9"/><polygon class="cls-8" points="28.67 8.09 30.52 11.72 34.08 9.9 28.67 8.09"/><polygon class="cls-9" points="26.98 2.43 26.98 2.43 24.99 5.89 28.51 7.92 26.98 2.43"/><polygon class="cls-8" points="21.46 3.86 24.99 5.89 26.98 2.43 21.46 3.86"/></g></g></svg>