<svg xmlns="http://www.w3.org/2000/svg" viewBox="0 0 35.95 46.92"><defs><style>.cls-1{fill:#ff750a;}.cls-2{fill:#fff51f;}.cls-3{fill:#fffe85;}.cls-4{fill:#ffe41f;}.cls-5{fill:#ff8629;}.cls-6{fill:#ffa31e;}.cls-7{fill:#ed6902;}.cls-8{fill:#ffce29;}.cls-9{fill:#ff9b43;}.cls-10{fill:#f78851;}.cls-11{fill:#fe6c05;}.cls-12{fill:#e55f06;}.cls-13{fill:#4d4d4d;}</style></defs><title>sun</title><g id="레이어_2" data-name="레이어 2"><g id="Layer_1" data-name="Layer 1"><polygon class="cls-1" points="17.92 19.94 13.86 30.91 17.92 30.91 17.92 19.94"/><polygon class="cls-2" points="17.92 5.37 13.86 5.37 17.92 16.33 17.92 5.37"/><polygon class="cls-3" points="17.92 16.33 13.86 5.37 13.77 5.37 7.13 10.19 17.92 17.68 17.92 16.33"/><polygon class="cls-4" points="17.92 17.68 7.13 10.19 7.05 10.24 4.49 18.14 17.92 18.14 17.92 17.68"/><polygon class="cls-5" points="17.92 18.59 7.04 26.01 7.05 26.03 13.77 30.91 13.86 30.91 17.92 19.94 17.92 18.59"/><polygon class="cls-6" points="17.92 18.14 4.49 18.14 7.04 26.01 17.92 18.59 17.92 18.14"/><polygon class="cls-7" points="17.92 19.94 21.97 30.91 17.92 30.91 17.92 19.94"/><polygon class="cls-8" points="17.92 5.37 21.98 5.37 17.92 16.33 17.92 5.37"/><polygon class="cls-9" points="17.92 16.33 21.98 5.37 22.06 5.37 28.7 10.19 17.92 17.68 17.92 16.33"/><polygon class="cls-10" points="17.92 17.68 28.7 10.19 28.78 10.24 31.35 18.14 17.92 18.14 17.92 17.68"/><polygon class="cls-11" points="17.92 18.59 28.79 26.01 28.78 26.03 22.06 30.91 21.97 30.91 17.92 19.94 17.92 18.59"/><polygon class="cls-12" points="17.92 18.14 31.35 18.14 28.79 26.01 17.92 18.59 17.92 18.14"/><polygon class="cls-9" points="17.92 0 17.92 0 17.92 4 21.98 4 17.92 0"/><polygon class="cls-8" points="13.85 4 17.92 4 17.92 0 13.85 4"/><polygon class="cls-9" points="8.04 2.93 8.04 2.93 10.21 6.28 13.63 4.06 8.04 2.93"/><polygon class="cls-8" points="6.8 8.49 10.21 6.28 8.04 2.93 6.8 8.49"/><polygon class="cls-9" points="1.35 10.76 1.35 10.76 5 12.39 6.65 8.67 1.35 10.76"/><polygon class="cls-8" points="3.34 16.1 5 12.39 1.35 10.76 3.34 16.1"/><polygon class="cls-9" points="0 20.98 0 20.98 3.95 20.35 3.31 16.33 0 20.98"/><polygon class="cls-8" points="4.58 24.37 3.95 20.35 0 20.98 4.58 24.37"/><polygon class="cls-9" points="4.44 30.27 4.44 30.27 7.41 27.6 4.68 24.58 4.44 30.27"/><polygon class="cls-8" points="10.13 30.62 7.41 27.6 4.44 30.27 10.13 30.62"/><polygon class="cls-9" points="13.22 35.66 13.22 35.66 14.25 31.8 10.33 30.75 13.22 35.66"/><polygon class="cls-8" points="18.18 32.85 14.25 31.8 13.22 35.66 18.18 32.85"/><polygon class="cls-9" points="23.52 35.39 23.52 35.39 22.29 31.59 18.42 32.84 23.52 35.39"/><polygon class="cls-8" points="26.15 30.33 22.29 31.59 23.52 35.39 26.15 30.33"/><polygon class="cls-9" points="32.01 29.55 32.01 29.55 28.9 27.04 26.35 30.2 32.01 29.55"/><polygon class="cls-8" points="31.46 23.88 28.9 27.04 32.01 29.55 31.46 23.88"/><polygon class="cls-9" points="35.95 20.03 35.95 20.03 31.98 19.62 31.55 23.66 35.95 20.03"/><polygon class="cls-8" points="32.4 15.57 31.98 19.62 35.95 20.03 32.4 15.57"/><polygon class="cls-9" points="34.08 9.9 34.08 9.9 30.52 11.72 32.36 15.34 34.08 9.9"/><polygon class="cls-8" points="28.67 8.09 30.52 11.72 34.08 9.9 28.67 8.09"/><polygon class="cls-9" points="26.98 2.43 26.98 2.43 24.99 5.89 28.51 7.92 26.98 2.43"/><polygon class="cls-8" points="21.46 3.86 24.99 5.89 26.98 2.43 21.46 3.86"/><path class="cls-13" d="M15.28,42.8a1.82,1.82,0,0,0-1.37-.54c-.88,0-1.27.36-1.27.93s.43.74,1.39,1,1.72.5,1.72,1.39S15,46.89,14,46.89a3,3,0,0,1-2-.72l.24-.4a2.5,2.5,0,0,0,1.77.68c.79,0,1.27-.28,1.27-.86s-.51-.81-1.51-1-1.59-.49-1.59-1.3.74-1.43,1.78-1.43a2.32,2.32,0,0,1,1.59.58Z"/><path class="cls-13" d="M16.48,45.34V43.19H17v2.06c0,.84.28,1.25.85,1.25a1.44,1.44,0,0,0,1.32-1v-2.3h.48v3c0,.13.06.2.18.2v.42l-.2,0a.36.36,0,0,1-.39-.35V46a1.77,1.77,0,0,1-1.55.9C16.88,46.92,16.48,46.38,16.48,45.34Z"/><path class="cls-13" d="M23.76,46.85h-.48v-2c0-.87-.25-1.25-.78-1.25a1.47,1.47,0,0,0-1.34,1v2.24h-.48V43.19h.44V44a1.79,1.79,0,0,1,1.55-.89c.82,0,1.09.62,1.09,1.58Z"/></g></g></svg>